<svg xmlns="http://www.w3.org/2000/svg" width="174" height="78.306" viewBox="0 0 174 78.306"><defs><style>.a,.c{fill:#fff;}.b{fill:none;}.c{opacity:0.65;}</style></defs><g transform="translate(0 70.628)"><path class="a" d="M3.783,125.1A3.783,3.783,0,1,1,0,128.883,3.783,3.783,0,0,1,3.783,125.1Zm0,6.549a2.738,2.738,0,1,0,0-5.476,2.738,2.738,0,0,0,0,5.476Z" transform="translate(0 -125.1)"/><path class="a" d="M16.3,125.482a.243.243,0,0,1,.226-.226h.734a.243.243,0,0,1,.226.226v4.347a1.754,1.754,0,1,0,3.5,0v-4.4a.207.207,0,0,1,.226-.226h.734a.243.243,0,0,1,.226.226v4.4a2.855,2.855,0,0,1-2.879,2.879,2.821,2.821,0,0,1-2.879-2.879v-4.347Z" transform="translate(-7.098 -125.144)"/><path class="a" d="M30.3,125.526a.243.243,0,0,1,.226-.226h2.879a2.314,2.314,0,0,1,2.315,2.258,2.343,2.343,0,0,1-1.581,2.145l1.468,2.653a.191.191,0,0,1-.169.282h-.847c-.113,0-.169-.056-.169-.113L33.01,129.7H31.429v2.71a.243.243,0,0,1-.226.226h-.677a.243.243,0,0,1-.226-.226Zm2.992,3.387a1.271,1.271,0,1,0,0-2.541H31.429v2.541Z" transform="translate(-13.194 -125.187)"/><path class="a" d="M47.3,125.369c0-.113.113-.169.226-.169h.282l4.573,5.307h0v-4.968a.207.207,0,0,1,.226-.226h.677a.243.243,0,0,1,.226.226v7.114c0,.113-.113.169-.226.169H53l-4.573-5.42h0v5.138a.207.207,0,0,1-.226.226h-.677a.243.243,0,0,1-.226-.226Z" transform="translate(-20.596 -125.144)"/><path class="a" d="M60.384,132.326l3.218-7.114c.056-.056.113-.113.169-.113h.113c.056,0,.169.056.169.113l3.218,7.114a.191.191,0,0,1-.169.282h-.677c-.113,0-.226-.056-.226-.169l-.677-1.468H62.077c-.226.508-.452.96-.621,1.468-.056.056-.113.169-.226.169h-.677C60.384,132.609,60.327,132.5,60.384,132.326Zm4.742-2.2-1.3-2.879h-.056l-1.3,2.879Z" transform="translate(-26.284 -125.1)"/><path class="a" d="M74.52,126.316H72.826a.243.243,0,0,1-.226-.226v-.565a.243.243,0,0,1,.226-.226h4.517a.243.243,0,0,1,.226.226v.565a.207.207,0,0,1-.226.226H75.649v6.21a.243.243,0,0,1-.226.226h-.677a.243.243,0,0,1-.226-.226Z" transform="translate(-31.612 -125.187)"/><path class="a" d="M83.7,125.526a.243.243,0,0,1,.226-.226H84.6a.243.243,0,0,1,.226.226v7a.243.243,0,0,1-.226.226h-.677a.243.243,0,0,1-.226-.226Z" transform="translate(-36.446 -125.187)"/><g transform="translate(50.077)"><path class="a" d="M92.483,125.1a3.783,3.783,0,1,1-3.783,3.783A3.783,3.783,0,0,1,92.483,125.1Zm0,6.549a2.738,2.738,0,1,0,0-5.476,2.738,2.738,0,0,0,0,5.476Z" transform="translate(-88.7 -125.1)"/><path class="a" d="M105.2,125.369c0-.113.113-.169.226-.169h.282l4.573,5.307h0v-4.968a.207.207,0,0,1,.226-.226h.677a.243.243,0,0,1,.226.226v7.114c0,.113-.113.169-.226.169H110.9l-4.573-5.42h0v5.138a.207.207,0,0,1-.226.226h-.677a.243.243,0,0,1-.226-.226Z" transform="translate(-95.885 -125.144)"/></g><g transform="translate(66.773)"><path class="a" d="M118.288,132.326l3.218-7.114c.056-.056.113-.113.169-.113h.113c.056,0,.169.056.169.113l3.218,7.114a.191.191,0,0,1-.169.282h-.678c-.113,0-.226-.056-.226-.169l-.677-1.468h-3.444c-.226.508-.452.96-.621,1.468-.056.056-.113.169-.226.169h-.677A.2.2,0,0,1,118.288,132.326Zm4.8-2.2-1.3-2.879h-.056l-1.3,2.879Z" transform="translate(-118.273 -125.1)"/><path class="a" d="M132.8,125.526a.243.243,0,0,1,.226-.226h.677a.243.243,0,0,1,.226.226v6.21h2.879a.243.243,0,0,1,.226.226v.565a.207.207,0,0,1-.226.226h-3.783a.243.243,0,0,1-.226-.226Z" transform="translate(-124.599 -125.187)"/><path class="a" d="M146.6,125.526a.207.207,0,0,1,.226-.226h2.428a2.343,2.343,0,1,1,0,4.686h-1.524v2.484a.243.243,0,0,1-.226.226h-.677a.243.243,0,0,1-.226-.226Zm2.541,3.444a1.337,1.337,0,0,0,1.355-1.355,1.28,1.28,0,0,0-1.355-1.242h-1.468v2.6Z" transform="translate(-130.608 -125.187)"/><path class="a" d="M155.688,132.326l3.218-7.114c.056-.056.113-.113.169-.113h.113c.056,0,.169.056.169.113l3.218,7.114a.191.191,0,0,1-.169.282h-.677c-.113,0-.226-.056-.226-.169l-.677-1.468h-3.444c-.226.508-.452.96-.621,1.468-.056.056-.113.169-.226.169h-.677A.2.2,0,0,1,155.688,132.326Zm4.8-2.2-1.3-2.879h-.056l-1.3,2.879Z" transform="translate(-134.559 -125.1)"/><path class="a" d="M170.2,125.526a.243.243,0,0,1,.226-.226h2.879a2.314,2.314,0,0,1,2.315,2.258,2.343,2.343,0,0,1-1.581,2.145l1.468,2.653a.191.191,0,0,1-.169.282h-.847c-.056,0-.169-.056-.169-.113L172.91,129.7h-1.581v2.71a.243.243,0,0,1-.226.226h-.677a.243.243,0,0,1-.226-.226Zm2.992,3.387a1.271,1.271,0,1,0,0-2.541h-1.863v2.541Z" transform="translate(-140.884 -125.187)"/><path class="a" d="M183,125.582c0-.113.113-.282.226-.282h.621a.258.258,0,0,1,.226.282v2.936l2.992-3.049a.293.293,0,0,1,.226-.113h.79a.25.25,0,0,1,.169.4l-3.049,3.105,3.218,3.557c.056.113.056.339-.169.339H187.4a.247.247,0,0,1-.169-.056l-3.049-3.444v3.275a.243.243,0,0,1-.226.226h-.621a.207.207,0,0,1-.226-.226v-6.944Z" transform="translate(-146.457 -125.187)"/></g></g><path class="b" d="M97.552,76.3,93.6,85.164h8.13L97.665,76.3Z" transform="translate(-40.756 -33.223)"/><path class="b" d="M185.9,27.818a9.259,9.259,0,1,0-9.2-9.2A9.168,9.168,0,0,0,185.9,27.818Z" transform="translate(-76.94 -4.05)"/><path class="b" d="M16.991,70.944A3.29,3.29,0,0,0,13.547,67.5H9.2v7.057h4.291A3.441,3.441,0,0,0,16.991,70.944Z" transform="translate(-4.006 -29.392)"/><path class="b" d="M13.6,87.9H9.2v7.17h4.855a3.58,3.58,0,0,0,3.613-3.67C17.725,89.368,15.693,87.9,13.6,87.9Z" transform="translate(-4.006 -38.274)"/><path class="b" d="M16.991,12.644A3.29,3.29,0,0,0,13.547,9.2H9.2v7.057h4.291A3.473,3.473,0,0,0,16.991,12.644Z" transform="translate(-4.006 -4.006)"/><path class="b" d="M13.6,29.6H9.2v7.17h4.855a3.58,3.58,0,0,0,3.613-3.67C17.725,31.068,15.693,29.6,13.6,29.6Z" transform="translate(-4.006 -12.889)"/><path class="a" d="M91.424,58.752a.7.7,0,0,0-.677-.452h-.4a.762.762,0,0,0-.677.452L77.14,85.851a.728.728,0,0,0,.677,1.073h3.5a1.27,1.27,0,0,0,1.186-.79l1.976-4.347H96.505l1.976,4.347a1.152,1.152,0,0,0,1.186.79h3.5a.718.718,0,0,0,.677-1.073ZM86.4,77.326l3.952-8.864h.113l4.065,8.864Z" transform="translate(-33.556 -25.386)"/><path class="a" d="M58.363,59.1H41.99a.772.772,0,0,0-.79.79v26.7a.807.807,0,0,0,.79.79H58.419a.772.772,0,0,0,.79-.79V83.264a.807.807,0,0,0-.79-.79H46.45V75.416h9.936a.807.807,0,0,0,.79-.79V71.295a.807.807,0,0,0-.79-.79H46.45V63.9H58.363a.772.772,0,0,0,.79-.79V59.777A.755.755,0,0,0,58.363,59.1Z" transform="translate(-17.94 -25.734)"/><path class="a" d="M14.114,14.628c1.92-.9,4.46-3.331,4.46-6.38C18.574,4.014,14.848.8,10.049.8H.79A.727.727,0,0,0,0,1.53v26.7a.807.807,0,0,0,.79.79h9.767c4.912,0,8.807-3.274,8.807-7.791C19.308,17.451,16.2,15.305,14.114,14.628Zm-8.92-9.09H9.485a3.29,3.29,0,0,1,3.444,3.444A3.429,3.429,0,0,1,9.485,12.6H5.194Zm4.912,18.687H5.194v-7.17H9.6c2.089,0,4.121,1.468,4.121,3.5A3.58,3.58,0,0,1,10.106,24.225Z" transform="translate(0 -0.344)"/><path class="a" d="M187.835,63.55a9.212,9.212,0,0,1,6.831,3.049l7.339,3.049A14.565,14.565,0,0,0,180.1,60.5l7.283,3.049Z" transform="translate(-78.421 -25.386)"/><path class="a" d="M51.856,5.6a4.014,4.014,0,0,1,3.952,3.444l5.081,2.145A8.682,8.682,0,0,0,52.251.8H40.79a.772.772,0,0,0-.79.79v.9l7.509,3.162h4.347Z" transform="translate(-17.417 -0.348)"/><path class="a" d="M84.2,45.076a.807.807,0,0,0,.79.79h7.283L84.2,39.6Z" transform="translate(-36.663 -17.243)"/><path class="a" d="M293.961,79.315c0-5.194-4.517-7.509-8.412-9.09-3.274-1.355-4.742-2.6-4.742-4.517,0-1.3,1.242-2.823,3.557-2.823,2.2,0,5.307,2.032,5.589,2.2.508.339,1.073,0,1.411-.508l1.524-2.315a1.045,1.045,0,0,0-.226-1.355,14.019,14.019,0,0,0-8.073-2.71c-6.38,0-9.09,4.178-9.09,7.735,0,4.742,3.783,7.17,7.565,8.694,3.387,1.355,5.138,2.766,5.138,4.855,0,1.75-1.581,3.105-3.67,3.105-2.6,0-5.872-2.371-6.1-2.484a.915.915,0,0,0-1.355.282l-1.468,2.484c0,.056-.056.056-.056.113l10.049,4.234C290.743,86.88,293.961,83.21,293.961,79.315Z" transform="translate(-119.961 -25.342)"/><path class="a" d="M137.235,87.947a9.157,9.157,0,0,1-9.033-9.315,10.847,10.847,0,0,1,.565-3.331l-4.517-3.5a14.493,14.493,0,0,0,12.816,21.4,13.784,13.784,0,0,0,9.767-3.9l-4.121-3.218A9.148,9.148,0,0,1,137.235,87.947Z" transform="translate(-53.34 -31.264)"/><path class="a" d="M230.994,68.857h0l6.944,7.565,11.687,4.855V59.486a.807.807,0,0,0-.79-.79h-3.726a.772.772,0,0,0-.79.79V76.14h-.056L227.607,58.3H226.59a.8.8,0,0,0-.79.734V71.342l5.194,2.2Z" transform="translate(-98.32 -25.386)"/><path class="a" d="M226.39,28.624h3.67a.772.772,0,0,0,.79-.79V10.5h.056l16.824,18.518h.96a.8.8,0,0,0,.79-.734V1.186a.807.807,0,0,0-.79-.79h-3.67a.772.772,0,0,0-.79.79V17.84h-.057L227.407,0H226.39a.8.8,0,0,0-.79.734v27.1A.9.9,0,0,0,226.39,28.624Z" transform="translate(-98.233)"/><path class="a" d="M99.387,17.016a.807.807,0,0,0,.79-.79V12.895a.807.807,0,0,0-.79-.79H89.45V5.555h11.912a.772.772,0,0,0,.79-.79V1.49a.807.807,0,0,0-.79-.79H84.99a.772.772,0,0,0-.79.79V12.838l10.049,4.178Z" transform="translate(-36.663 -0.305)"/><path class="a" d="M144.889,25.123a.788.788,0,0,0,.056-1.073l-2.484-2.6a.769.769,0,0,0-1.016,0,9.72,9.72,0,0,1-6.154,2.315,9.157,9.157,0,0,1-9.033-9.315,9.124,9.124,0,0,1,8.977-9.372,9.661,9.661,0,0,1,6.21,2.371.635.635,0,0,0,1.016,0l2.484-2.541a.718.718,0,0,0-.056-1.129A13.685,13.685,0,0,0,135.066,0,14.529,14.529,0,0,0,120.5,14.566a14.248,14.248,0,0,0,2.032,7.4l15.921,6.662A13.661,13.661,0,0,0,144.889,25.123Z" transform="translate(-52.469 0)"/><path class="a" d="M181.853,29.019a14.509,14.509,0,1,0,0-29.019A14.434,14.434,0,0,0,167.4,14.566,14.338,14.338,0,0,0,181.853,29.019Zm0-23.768a9.349,9.349,0,0,1,9.259,9.315,9.231,9.231,0,1,1-9.259-9.315Z" transform="translate(-72.891 0)"/><path class="a" d="M51.856,15.575H45.307V9.365L40,5.3V30.2a.807.807,0,0,0,.79.79h3.726a.807.807,0,0,0,.79-.79V19.866h4.46l5.307,10.67a.626.626,0,0,0,.621.339h4.234a.767.767,0,0,0,.677-1.186L55.074,19.471a12.483,12.483,0,0,0,1.92-1.016l-4.008-3.049A3.64,3.64,0,0,1,51.856,15.575Z" transform="translate(-17.417 -2.308)"/><path class="a" d="M14.114,72.888c1.92-.9,4.46-3.331,4.46-6.436,0-4.234-3.726-7.452-8.525-7.452H.79a.772.772,0,0,0-.79.79v26.7a.807.807,0,0,0,.79.79h9.767c4.912,0,8.807-3.274,8.807-7.791C19.308,75.768,16.2,73.566,14.114,72.888ZM5.194,63.8H9.485a3.29,3.29,0,0,1,3.444,3.444,3.429,3.429,0,0,1-3.444,3.613H5.194Zm4.912,18.687H5.194v-7.17H9.6c2.089,0,4.121,1.468,4.121,3.5A3.58,3.58,0,0,1,10.106,82.486Z" transform="translate(0 -25.69)"/><path class="c" d="M138.529,63.425a9.661,9.661,0,0,1,6.21,2.371.635.635,0,0,0,1.016,0l2.484-2.541a.718.718,0,0,0-.056-1.129,13.6,13.6,0,0,0-9.767-3.726A14.529,14.529,0,0,0,125.6,66.022l4.517,3.5A8.887,8.887,0,0,1,138.529,63.425Z" transform="translate(-54.69 -25.429)"/><path class="c" d="M162.478,98.75l-2.484-2.6a.769.769,0,0,0-1.016,0l-.678.508,4.121,3.218h0A.757.757,0,0,0,162.478,98.75Z" transform="translate(-68.929 -41.785)"/><path class="c" d="M102.153,37.5V34.169a.807.807,0,0,0-.79-.79H89.45v-7h4.8L84.2,22.2v9.823l8.017,6.267h9.146A.807.807,0,0,0,102.153,37.5Z" transform="translate(-36.663 -9.667)"/><path class="c" d="M275.8,103.329a12.77,12.77,0,0,0,8.864,3.162,5.48,5.48,0,0,0,.96-.056L275.571,102.2C275.232,102.765,275.458,102.99,275.8,103.329Z" transform="translate(-119.919 -44.501)"/><path class="c" d="M70.947,17.545,65.866,15.4c0,.169.056.282.056.452A4.233,4.233,0,0,1,63.1,19.8l4.008,3.105A8.978,8.978,0,0,0,70.947,17.545Z" transform="translate(-27.476 -6.706)"/><path class="c" d="M45.307,6.862h2.2L40,3.7v.9l5.307,4.065Z" transform="translate(-17.417 -1.611)"/><path class="c" d="M257.236,101.253h.96a.8.8,0,0,0,.79-.734V95.212L247.3,90.3Z" transform="translate(-107.682 -39.319)"/><path class="c" d="M136.633,45.957a13.565,13.565,0,0,0,3.387-.4L124.1,38.9A14.678,14.678,0,0,0,136.633,45.957Z" transform="translate(-54.037 -16.938)"/><path class="c" d="M168.1,74.651a14.481,14.481,0,0,0,28.962,0,14.661,14.661,0,0,0-.339-3.162l-7.339-3.049a9.136,9.136,0,0,1,2.428,6.267,9.231,9.231,0,1,1-9.654-9.259L174.875,62.4A14.326,14.326,0,0,0,168.1,74.651Z" transform="translate(-73.196 -27.171)"/><path class="c" d="M226.63,96.939h3.67a.772.772,0,0,0,.79-.79V83.5L225.9,81.3V96.148A.727.727,0,0,0,226.63,96.939Z" transform="translate(-98.36 -35.401)"/></svg>