<?xml version="1.0" encoding="UTF-8"?>
<svg width="140px" height="36px" viewBox="0 0 140 36" version="1.1" xmlns="http://www.w3.org/2000/svg" xmlns:xlink="http://www.w3.org/1999/xlink">
    <title>- asset / logo / full / colour</title>
    <defs>
        <polygon id="path-1" points="0 0.438709091 28.5393818 0.438709091 28.5393818 20.9092545 0 20.9092545"></polygon>
        <polygon id="path-3" points="0 1.08741818 28.5393818 1.08741818 28.5393818 21.5592364 0 21.5592364"></polygon>
    </defs>
    <g id="--asset-/-logo-/-full-/-colour" stroke="none" stroke-width="1" fill="none" fill-rule="evenodd">
        <g id="Group-46">
            <g id="Group-3" transform="translate(0.000000, 0.913564)">
                <mask id="mask-2" fill="white">
                    <use xlink:href="#path-1"></use>
                </mask>
                <g id="Clip-2"></g>
                <path d="M28.4795636,0.438709091 C27.3735636,0.438709091 26.6595636,2.13525455 25.9010182,3.93234545 C24.9286545,6.23852727 23.8264727,8.85016364 21.3408364,8.85016364 C18.9557455,8.85016364 18.0355636,6.46634545 17.2222909,4.3638 C16.3530182,2.10852727 15.6733818,0.632163636 14.2110182,0.632163636 C12.7435636,0.632163636 12.0626545,2.10852727 11.1921091,4.3638 C10.3801091,6.46634545 9.45992727,8.85016364 7.07101818,8.85016364 C4.5892,8.85016364 3.48829091,6.2398 2.51847273,3.93489091 C1.7752,2.16834545 1.07138182,0.506163636 -0.000254545455,0.445072727 L-0.000254545455,12.5003455 C1.85029091,12.5461636 2.74501818,14.6639818 3.6092,16.7168909 C4.4772,18.7774364 5.37574545,20.9092545 7.07101818,20.9092545 C8.5372,20.9092545 9.21810909,19.4316182 10.0873818,17.1776182 C10.8993818,15.0750727 11.8208364,12.6899818 14.2110182,12.6899818 C16.5961091,12.6899818 17.5162909,15.0750727 18.3282909,17.1776182 C19.1975636,19.4316182 19.8772,20.9092545 21.3408364,20.9092545 C23.0412,20.9092545 23.9397455,18.7761636 24.8102909,16.7143455 C25.6846545,14.6398 26.5882909,12.4952545 28.4795636,12.4952545 L28.5393818,12.4952545 L28.5393818,0.438709091 L28.4795636,0.438709091 Z" id="Fill-1" fill="#009EDB" mask="url(#mask-2)"></path>
            </g>
            <g id="Group-6" transform="translate(0.000000, 13.640836)">
                <mask id="mask-4" fill="white">
                    <use xlink:href="#path-3"></use>
                </mask>
                <g id="Clip-5"></g>
                <path d="M28.4795636,1.08741818 C27.3735636,1.08741818 26.6595636,2.78396364 25.9010182,4.57978182 C24.9286545,6.88723636 23.8264727,9.50014545 21.3408364,9.50014545 C18.9557455,9.50014545 18.0355636,7.11505455 17.2222909,5.01250909 C16.3530182,2.75723636 15.6733818,1.28087273 14.2110182,1.28087273 C12.7435636,1.28087273 12.0626545,2.75723636 11.1921091,5.01250909 C10.3801091,7.11505455 9.45992727,9.50014545 7.07101818,9.50014545 C4.5892,9.50014545 3.48829091,6.88850909 2.51847273,4.58232727 C1.7752,2.81832727 1.07138182,1.15487273 -0.000254545455,1.09378182 L-0.000254545455,13.1503273 C1.85029091,13.1961455 2.74501818,15.3139636 3.6092,17.3656 C4.4772,19.4261455 5.37574545,21.5592364 7.07101818,21.5592364 C8.5372,21.5592364 9.21810909,20.0828727 10.0873818,17.8276 C10.8993818,15.7250545 11.8208364,13.3399636 14.2110182,13.3399636 C16.5961091,13.3399636 17.5162909,15.7250545 18.3282909,17.8276 C19.1975636,20.0816 19.8772,21.5592364 21.3408364,21.5592364 C23.0412,21.5592364 23.9397455,19.4248727 24.8102909,17.3617818 C25.6846545,15.2885091 26.5882909,13.1452364 28.4795636,13.1452364 L28.5393818,13.1452364 L28.5393818,1.08741818 L28.4795636,1.08741818 Z" id="Fill-4" fill="#8ABD43" mask="url(#mask-4)"></path>
            </g>
            <path d="M51.4403273,31.9796909 L54.5483273,22.8822364 C54.6819636,22.4635091 54.9466909,22.2764182 55.3641455,22.2764182 C55.8566909,22.2764182 56.1786909,22.5971455 56.1786909,23.0909636 C56.1786909,23.1647818 56.1596,23.2984182 56.1214182,23.4129636 L52.2739636,34.5556909 C52.1606909,34.8980545 51.9328727,35.2009636 51.4212364,35.2009636 C51.0241455,35.2009636 50.7390545,34.9922364 50.6257818,34.6524182 L47.5546909,25.5358727 L44.4848727,34.6524182 C44.3703273,34.9922364 44.0865091,35.2009636 43.6881455,35.2009636 C43.1765091,35.2009636 42.9486909,34.8980545 42.8354182,34.5556909 L38.9879636,23.4129636 C38.9497818,23.2984182 38.9306909,23.1647818 38.9306909,23.0909636 C38.9306909,22.5971455 39.2526909,22.2764182 39.7465091,22.2764182 C40.1626909,22.2764182 40.4286909,22.4635091 40.5610545,22.8822364 L43.6690545,31.9796909 L46.7401455,22.8631455 C46.8725091,22.5029636 47.1194182,22.2764182 47.5546909,22.2764182 C47.9912364,22.2764182 48.2368727,22.5029636 48.3705091,22.8631455 L51.4403273,31.9796909 Z" id="Fill-7" fill="#009EDB"></path>
            <path d="M66.1847455,35.2013455 C65.6540182,35.2013455 65.2938364,34.8042545 65.2938364,34.3104364 L65.2938364,23.1651636 C65.2938364,22.6738909 65.6540182,22.2755273 66.1847455,22.2755273 C66.7154727,22.2755273 67.0756545,22.6738909 67.0756545,23.1651636 L67.0756545,34.3104364 C67.0756545,34.8042545 66.7154727,35.2013455 66.1847455,35.2013455" id="Fill-12" fill="#009EDB"></path>
            <path d="M72.1736909,35.2770727 C70.9811455,35.2770727 69.9196909,34.8978 69.1598727,34.3098 C68.8951455,34.1023455 68.7818727,33.8185273 68.7818727,33.5716182 C68.7818727,33.1923455 69.0847818,32.9454364 69.4640545,32.9454364 C69.7669636,32.9454364 69.9566,33.0587091 70.1653273,33.2114364 C70.6769636,33.5894364 71.3973273,33.9496182 72.3073273,33.9496182 C73.3306,33.9496182 73.8804182,33.5716182 73.8804182,32.9836182 C73.8804182,32.3396182 73.3484182,32.0927091 72.0222364,31.7325273 C69.6906,31.1076182 68.8378727,30.3108909 68.8378727,28.9465273 C68.8378727,27.5248909 70.1462364,26.5958 72.1927818,26.5958 C72.9691455,26.5958 73.8422364,26.7854364 74.5422364,27.1265273 C75.0551455,27.3734364 75.4153273,27.6763455 75.4153273,28.0556182 C75.4153273,28.3967091 75.2256909,28.7187091 74.7331455,28.7187091 C74.4862364,28.7187091 74.2393273,28.6054364 73.9555091,28.4539818 C73.4247818,28.1688909 72.8367818,28.0174364 72.1546,28.0174364 C71.2076909,28.0174364 70.5624182,28.2643455 70.5624182,28.9274364 C70.5624182,29.5727091 71.1313273,29.7801636 72.4956909,30.1785273 C74.5422364,30.7665273 75.6049636,31.3163455 75.6049636,32.8512545 C75.6049636,34.2538 74.4289636,35.2770727 72.1736909,35.2770727" id="Fill-14" fill="#009EDB"></path>
            <path d="M84.3031636,35.2013455 C83.7724364,35.2013455 83.4135273,34.8042545 83.4135273,34.3104364 L83.4135273,30.5202545 C83.4135273,29.1928 82.6918909,28.2077091 81.2702545,28.2077091 C79.8498909,28.2077091 79.0340727,29.2500727 79.0340727,30.5380727 L79.0340727,34.3104364 C79.0340727,34.8042545 78.6560727,35.2013455 78.1431636,35.2013455 C77.6124364,35.2013455 77.2522545,34.8042545 77.2522545,34.3104364 L77.2522545,23.1842545 C77.2522545,22.6166182 77.6328,22.2755273 78.1431636,22.2755273 C78.6369818,22.2755273 79.0340727,22.5593455 79.0340727,23.1842545 L79.0340727,28.1886182 C79.5648,27.1653455 80.5117091,26.5964364 81.7653455,26.5964364 C83.9442545,26.5964364 85.1940727,28.2077091 85.1940727,30.4438909 L85.1940727,34.3104364 C85.1940727,34.7838909 84.8708,35.2013455 84.3031636,35.2013455" id="Fill-16" fill="#009EDB"></path>
            <path d="M63.6263091,30.9555273 C63.6263091,31.2584364 63.4557636,31.5638909 62.9441273,31.5638909 L57.2766727,31.5638909 C57.3721273,32.8697091 58.2630364,33.8560727 59.8361273,33.8560727 C60.8212182,33.8560727 61.4092182,33.5137091 62.0341273,32.9269818 C62.1855818,32.7755273 62.3943091,32.6418909 62.6221273,32.6418909 C63.0204909,32.6418909 63.3615818,32.9269818 63.3615818,33.3813455 C63.3615818,33.5709818 63.2661273,33.7415273 63.1337636,33.8929818 C62.4134,34.7278909 61.1241273,35.2777091 59.7597636,35.2777091 C56.9355818,35.2777091 55.4388545,33.3062545 55.4388545,30.9364364 C55.4388545,28.4533455 57.2384909,26.5964364 59.6846727,26.5964364 C62.0723091,26.5964364 63.6263091,28.5297091 63.6263091,30.9555273 M59.6846727,28.0180727 C58.3763091,28.0180727 57.4854,28.9458909 57.3148545,30.1218909 L61.9781273,30.1218909 C61.8254,28.9840727 60.9726727,28.0180727 59.6846727,28.0180727" id="Fill-9" fill="#009EDB"></path>
            <path d="M104.034127,31.9796909 L107.140855,22.8822364 C107.274491,22.4635091 107.540491,22.2764182 107.956673,22.2764182 C108.450491,22.2764182 108.772491,22.5971455 108.772491,23.0909636 C108.772491,23.1647818 108.7534,23.2984182 108.715218,23.4129636 L104.866491,34.5556909 C104.753218,34.8980545 104.526673,35.2009636 104.013764,35.2009636 C103.616673,35.2009636 103.331582,34.9922364 103.217036,34.6524182 L100.147218,25.5358727 L97.0774,34.6524182 C96.9628545,34.9922364 96.6803091,35.2009636 96.2806727,35.2009636 C95.7703091,35.2009636 95.5412182,34.8980545 95.4279455,34.5556909 L91.5817636,23.4129636 C91.5435818,23.2984182 91.5244909,23.1647818 91.5244909,23.0909636 C91.5244909,22.5971455 91.8477636,22.2764182 92.3403091,22.2764182 C92.7564909,22.2764182 93.0224909,22.4635091 93.1535818,22.8822364 L96.2628545,31.9796909 L99.3326727,22.8631455 C99.4650364,22.5029636 99.7119455,22.2764182 100.147218,22.2764182 C100.585036,22.2764182 100.8294,22.5029636 100.964309,22.8631455 L104.034127,31.9796909 Z" id="Fill-18" fill="#009EDB"></path>
            <path d="M120.749873,35.2013455 C120.219145,35.2013455 119.858964,34.8042545 119.858964,34.3104364 L119.858964,28.3018909 L118.418236,28.3018909 C118.000782,28.3018909 117.678782,27.9798909 117.678782,27.5637091 C117.678782,27.1462545 118.000782,26.8242545 118.418236,26.8242545 L119.858964,26.8242545 L119.858964,24.3411636 C119.858964,23.8486182 120.219145,23.4502545 120.749873,23.4502545 C121.279327,23.4502545 121.640782,23.8486182 121.640782,24.3411636 L121.640782,26.8242545 L123.269873,26.8242545 C123.6886,26.8242545 124.0106,27.1462545 124.0106,27.5637091 C124.0106,27.9798909 123.6886,28.3018909 123.269873,28.3018909 L121.640782,28.3018909 L121.640782,34.3104364 C121.640782,34.8042545 121.279327,35.2013455 120.749873,35.2013455" id="Fill-20" fill="#009EDB"></path>
            <path d="M132.518782,30.9555273 C132.518782,31.2584364 132.349509,31.5638909 131.8366,31.5638909 L126.170418,31.5638909 C126.2646,32.8697091 127.155509,33.8560727 128.727327,33.8560727 C129.713691,33.8560727 130.301691,33.5137091 130.9266,32.9269818 C131.079327,32.7755273 131.286782,32.6418909 131.5146,32.6418909 C131.912964,32.6418909 132.254055,32.9269818 132.254055,33.3813455 C132.254055,33.5709818 132.1586,33.7415273 132.026236,33.8929818 C131.305873,34.7278909 130.017873,35.2777091 128.652236,35.2777091 C125.829327,35.2777091 124.331327,33.3062545 124.331327,30.9364364 C124.331327,28.4533455 126.132236,26.5964364 128.577145,26.5964364 C130.964782,26.5964364 132.518782,28.5297091 132.518782,30.9555273 M128.577145,28.0180727 C127.268782,28.0180727 126.377873,28.9458909 126.207327,30.1218909 L130.8706,30.1218909 C130.719145,28.9840727 129.866418,28.0180727 128.577145,28.0180727" id="Fill-22" fill="#009EDB"></path>
            <path d="M138.186491,28.3020182 C136.688491,28.3020182 135.778491,29.2883818 135.778491,31.2025636 L135.778491,34.3118364 C135.778491,34.8031091 135.400491,35.2014727 134.887582,35.2014727 C134.319945,35.2014727 133.997945,34.8031091 133.997945,34.3118364 L133.997945,27.5829273 C133.997945,27.0522 134.377218,26.6716545 134.907945,26.6716545 C135.418309,26.6716545 135.778491,27.0318364 135.778491,27.5829273 L135.778491,28.3962 C136.100491,27.3182 136.992673,26.6347455 138.186491,26.6347455 C138.696855,26.6347455 139.018855,26.9949273 139.018855,27.4696545 C139.018855,27.9418364 138.658673,28.3020182 138.186491,28.3020182" id="Fill-25" fill="#009EDB"></path>
            <path d="M116.788764,30.8412364 L116.788764,27.4672364 C116.788764,26.9734182 116.4464,26.5763273 115.897855,26.5763273 C115.432036,26.5763273 115.112582,26.8843273 115.041309,27.2903273 C114.355309,26.8359636 113.480945,26.5776 112.450036,26.5776 C109.774764,26.5776 108.069309,28.5490545 108.069309,30.9188727 C108.069309,33.3268727 109.605491,35.2601455 112.257855,35.2601455 C113.489855,35.2601455 114.495309,34.6734182 115.026036,33.8766909 L115.026036,34.2928727 C115.026036,34.7866909 115.3684,35.1837818 115.899127,35.1837818 C116.447673,35.1837818 116.790036,34.7866909 116.790036,34.2928727 L116.790036,30.9188727 C116.790036,30.8908727 116.786218,30.8654182 116.786218,30.8361455 L116.788764,30.8412364 Z M112.4284,33.7430545 C110.743309,33.7430545 109.8524,32.5492364 109.8524,30.9188727 C109.8524,29.3636 110.913855,28.0959636 112.4284,28.0959636 C113.946764,28.0959636 115.008218,29.1752364 115.008218,30.9188727 C115.008218,32.3990545 114.004036,33.7430545 112.4284,33.7430545 L112.4284,33.7430545 Z" id="Fill-27" fill="#009EDB"></path>
            <path d="M43.7561091,14.1229455 L40.2497455,14.1229455 C39.7381091,14.1229455 39.3206545,13.7067636 39.3206545,13.1951273 L39.3206545,2.42912727 C39.3206545,1.91749091 39.7381091,1.50003636 40.2497455,1.50003636 L43.7561091,1.50003636 C47.6608364,1.50003636 50.0866545,4.19185455 50.0866545,7.81149091 C50.0866545,11.4311273 47.6608364,14.1229455 43.7561091,14.1229455 M43.6988364,3.16730909 L41.1406545,3.16730909 L41.1406545,12.4556727 L43.6988364,12.4556727 C46.5993818,12.4556727 48.2666545,10.5224 48.2666545,7.81149091 C48.2666545,5.10058182 46.5993818,3.16730909 43.6988364,3.16730909" id="Fill-29" fill="#009EDB"></path>
            <path d="M59.6762727,11.4122909 L61.3435455,6.31374545 C61.4771818,5.91792727 61.7037273,5.74610909 62.0639091,5.74610909 C62.4813636,5.74610909 62.8797273,5.99174545 62.8797273,6.50465455 C62.8797273,6.59883636 62.8415455,6.75029091 62.8033636,6.84447273 L60.4717273,13.7642909 C60.3584545,14.0862909 60.1306364,14.2746545 59.7335455,14.2746545 C59.3351818,14.2746545 59.0882727,14.0659273 58.975,13.7439273 L57.0417273,8.49392727 L55.1275455,13.7439273 C55.0142727,14.0468364 54.7864545,14.2746545 54.369,14.2746545 C53.9528182,14.2746545 53.7059091,14.0659273 53.6295455,13.7642909 L51.2991818,6.84447273 C51.261,6.75029091 51.2228182,6.59883636 51.2228182,6.50465455 C51.2228182,5.99174545 51.6211818,5.74610909 52.0386364,5.74610909 C52.3975455,5.74610909 52.6253636,5.91792727 52.7577273,6.31374545 L54.4262727,11.4122909 L56.3213636,6.27556364 C56.4346364,5.95356364 56.6433636,5.74610909 57.0417273,5.74610909 C57.4400909,5.74610909 57.6488182,5.95356364 57.7620909,6.27556364 L59.6762727,11.4122909 Z M59.3351818,3.54683636 C59.4675455,3.6792 59.5439091,3.83065455 59.5439091,4.02029091 C59.5439091,4.34229091 59.2397273,4.60829091 58.9177273,4.60829091 C58.7280909,4.60829091 58.6148182,4.55101818 58.5015455,4.45683636 L57.0417273,3.12938182 L55.5819091,4.45683636 C55.4686364,4.55101818 55.3553636,4.60829091 55.1657273,4.60829091 C54.8424545,4.60829091 54.5395455,4.34229091 54.5395455,4.02029091 C54.5395455,3.83065455 54.6159091,3.6792 54.7482727,3.54683636 L56.5860909,1.89738182 C56.7388182,1.76501818 56.8711818,1.70774545 57.0417273,1.70774545 C57.2122727,1.70774545 57.3446364,1.76501818 57.4960909,1.89738182 L59.3351818,3.54683636 Z" id="Fill-31" fill="#009EDB"></path>
            <path d="M68.4891455,7.37532727 C66.9911455,7.37532727 66.0824182,8.36041818 66.0824182,10.2746 L66.0824182,13.3851455 C66.0824182,13.8764182 65.7031455,14.2747818 65.1915091,14.2747818 C64.6226,14.2747818 64.3006,13.8764182 64.3006,13.3851455 L64.3006,6.65623636 C64.3006,6.12550909 64.6798727,5.74623636 65.2106,5.74623636 C65.7222364,5.74623636 66.0824182,6.10514545 66.0824182,6.65623636 L66.0824182,7.46950909 C66.4044182,6.39150909 67.2953273,5.70805455 68.4891455,5.70805455 C69.0007818,5.70805455 69.3227818,6.06823636 69.3227818,6.54296364 C69.3227818,7.01641818 68.9626,7.37532727 68.4891455,7.37532727" id="Fill-33" fill="#009EDB"></path>
            <path d="M109.8272,14.2746545 C109.316836,14.2746545 108.937564,13.8762909 108.937564,13.3837455 L108.937564,9.59356364 C108.937564,8.2852 108.312655,7.28101818 106.908836,7.28101818 C105.506291,7.28101818 104.654836,8.36156364 104.654836,9.61265455 L104.654836,13.3837455 C104.654836,13.8762909 104.3112,14.2746545 103.761382,14.2746545 C103.230655,14.2746545 102.871745,13.8762909 102.871745,13.3837455 L102.871745,9.59356364 C102.871745,8.2852 102.189564,7.28101818 100.785745,7.28101818 C99.3475636,7.28101818 98.5877455,8.36156364 98.5877455,9.61265455 L98.5877455,13.3837455 C98.5877455,13.8762909 98.2288364,14.2746545 97.6981091,14.2746545 C97.1852,14.2746545 96.8072,13.8762909 96.8072,13.3837455 L96.8072,6.65610909 C96.8072,6.12538182 97.1470182,5.74610909 97.6981091,5.74610909 C98.3039273,5.74610909 98.5877455,6.16356364 98.5877455,6.65610909 L98.5877455,7.26192727 C99.0993818,6.25774545 100.143018,5.66974545 101.261745,5.66974545 C102.626109,5.66974545 103.649382,6.35192727 104.161018,7.35610909 C104.900473,6.21956364 105.981018,5.66974545 107.325018,5.66974545 C109.619745,5.66974545 110.718109,7.24283636 110.718109,9.4612 L110.718109,13.3837455 C110.718109,13.8762909 110.357927,14.2746545 109.8272,14.2746545" id="Fill-38" fill="#009EDB"></path>
            <path d="M116.3288,7.37532727 C114.832073,7.37532727 113.9208,8.36041818 113.9208,10.2746 L113.9208,13.3851455 C113.9208,13.8764182 113.5428,14.2747818 113.031164,14.2747818 C112.462255,14.2747818 112.140255,13.8764182 112.140255,13.3851455 L112.140255,6.65623636 C112.140255,6.12550909 112.518255,5.74623636 113.048982,5.74623636 C113.561891,5.74623636 113.9208,6.10514545 113.9208,6.65623636 L113.9208,7.46950909 C114.2428,6.39150909 115.134982,5.70805455 116.3288,5.70805455 C116.839164,5.70805455 117.161164,6.06823636 117.161164,6.54296364 C117.161164,7.01641818 116.802255,7.37532727 116.3288,7.37532727" id="Fill-40" fill="#009EDB"></path>
            <path d="M118.241709,10.3894 L118.241709,6.6374 C118.241709,6.14358182 118.640073,5.74649091 119.132618,5.74649091 C119.625164,5.74649091 120.023527,6.14358182 120.023527,6.6374 L120.023527,10.5981273 C120.023527,11.7919455 120.952618,12.7210364 122.202436,12.7210364 C123.4548,12.7210364 124.402982,11.7919455 124.402982,10.5981273 L124.402982,6.6374 C124.402982,6.14358182 124.800073,5.74649091 125.292618,5.74649091 C125.786436,5.74649091 126.183527,6.14358182 126.183527,6.6374 L126.183527,10.3894 C126.183527,12.6064909 124.495891,14.3501273 122.202436,14.3501273 C119.910255,14.3501273 118.241709,12.6064909 118.241709,10.3894" id="Fill-42" fill="#009EDB"></path>
            <path d="M94.7322727,5.70614545 C94.2957273,5.70614545 94.0488182,5.91487273 93.8960909,6.35269091 L91.7120909,12.2606909 L89.2799091,6.19996364 C89.1475455,5.89705455 88.9184545,5.70614545 88.5200909,5.70614545 C88.1013636,5.70614545 87.7220909,5.97214545 87.7220909,6.50414545 C87.7220909,6.61869091 87.7602727,6.75105455 87.7984545,6.8656 L90.9306364,14.3746909 L89.7406364,17.5985091 C89.7406364,17.5985091 89.6935455,17.7754182 89.6935455,17.8721455 C89.6935455,18.3201455 90.0562727,18.6828727 90.5055455,18.6828727 C90.853,18.6828727 91.1457273,18.4652364 91.2628182,18.1585091 L91.2640909,18.1585091 C91.2640909,18.1585091 95.1166364,7.77178182 95.417,6.94069091 C95.4539091,6.84650909 95.4933636,6.6556 95.4933636,6.52450909 C95.4933636,5.93396364 95.0937273,5.70614545 94.7322727,5.70614545" id="Fill-44" fill="#009EDB"></path>
            <path d="M86.8758545,3.35707273 C87.0273091,3.54670909 87.1227636,3.75543636 87.1227636,4.00361818 C87.1227636,4.4758 86.7994909,4.79907273 86.3082182,4.79907273 C85.9480364,4.79907273 85.7011273,4.59034545 85.5127636,4.36125455 C84.6956727,3.45252727 83.5973091,2.9218 82.2138545,2.9218 C79.1427636,2.9218 77.5314909,5.13889091 77.5314909,7.81161818 C77.5314909,10.4856182 79.1427636,12.7027091 82.2138545,12.7027091 C83.5973091,12.7027091 84.6956727,12.1719818 85.5127636,11.2607091 C85.7011273,11.0328909 85.9480364,10.8254364 86.3082182,10.8254364 C86.7994909,10.8254364 87.1227636,11.1474364 87.1227636,11.6208909 C87.1227636,11.8678 87.0273091,12.0765273 86.8758545,12.2648909 C85.9276727,13.4599818 84.1853091,14.3508909 82.0993091,14.3508909 C78.1398545,14.3508909 75.6936727,11.3548909 75.6936727,7.81161818 C75.6936727,4.26834545 78.1398545,1.27234545 82.0993091,1.27234545 C84.1853091,1.27234545 85.9276727,2.16452727 86.8758545,3.35707273" id="Fill-35" fill="#009EDB"></path>
        </g>
    </g>
</svg>