<?xml version="1.0" encoding="UTF-8" standalone="no"?>
<!-- Created with Inkscape (http://www.inkscape.org/) -->

<svg
   xmlns:dc="http://purl.org/dc/elements/1.1/"
   xmlns:cc="http://creativecommons.org/ns#"
   xmlns:rdf="http://www.w3.org/1999/02/22-rdf-syntax-ns#"
   xmlns:svg="http://www.w3.org/2000/svg"
   xmlns="http://www.w3.org/2000/svg"
   xmlns:sodipodi="http://sodipodi.sourceforge.net/DTD/sodipodi-0.dtd"
   xmlns:inkscape="http://www.inkscape.org/namespaces/inkscape"
   id="svg2"
   version="1.1"
   inkscape:version="0.91 r13725"
   xml:space="preserve"
   width="457.99738"
   height="79.996872"
   viewBox="0 0 457.99738 79.996872"
   sodipodi:docname="nrw-logo.svg"
    preserveAspectRatio="xMinYMin meet"><metadata
     id="metadata8"><rdf:RDF><cc:Work
         rdf:about=""><dc:format>image/svg+xml</dc:format><dc:type
           rdf:resource="http://purl.org/dc/dcmitype/StillImage" /><dc:title></dc:title></cc:Work></rdf:RDF></metadata><defs
     id="defs6"><clipPath
       clipPathUnits="userSpaceOnUse"
       id="clipPath32"><path
         d="m 0,0 424.843,0 0,82.743 L 0,82.743 0,0 Z"
         id="path34"
         inkscape:connector-curvature="0" /></clipPath></defs><sodipodi:namedview
     pagecolor="#ffffff"
     bordercolor="#666666"
     borderopacity="1"
     objecttolerance="10"
     gridtolerance="10"
     guidetolerance="10"
     inkscape:pageopacity="0"
     inkscape:pageshadow="2"
     inkscape:window-width="1837"
     inkscape:window-height="1057"
     id="namedview4"
     showgrid="false"
     inkscape:zoom="1.2007734"
     inkscape:cx="262.46625"
     inkscape:cy="56.967368"
     inkscape:window-x="-8"
     inkscape:window-y="-8"
     inkscape:window-maximized="1"
     inkscape:current-layer="g36"
     fit-margin-top="0"
     fit-margin-left="0"
     fit-margin-right="0"
     fit-margin-bottom="0" /><g
     id="g10"
     inkscape:groupmode="layer"
     inkscape:label="Vector Smart Object"
     transform="matrix(1.25,0,0,-1.25,-13.241,92.269)"><g
       id="g12"
       transform="translate(10.5928,54.9072)"><path
         d="M 0,0 32.745,18.908 55.425,5.812 22.679,-13.091 0,0 Z"
         style="fill:#41c0f0;fill-opacity:1;fill-rule:nonzero;stroke:none"
         id="path14"
         inkscape:connector-curvature="0" /></g><g
       id="g16"
       transform="translate(76.0833,28.7197)"><path
         d="M 0,0 -32.745,-18.902 -55.425,-5.811 -22.679,13.097 0,0 Z"
         style="fill:#055445;fill-opacity:1;fill-rule:nonzero;stroke:none"
         id="path18"
         inkscape:connector-curvature="0" /></g><g
       id="g20"
       transform="translate(76.0833,54.9072)"><path
         d="M 0,0 -10.066,5.812 -32.745,-7.28 0,-26.187 0,0 Z"
         style="fill:#0092a6;fill-opacity:1;fill-rule:nonzero;stroke:none"
         id="path22"
         inkscape:connector-curvature="0" /></g><g
       id="g24"
       transform="translate(10.593,54.9072)"><path
         d="M 0,0 0,-26.187 10.066,-31.999 32.745,-18.902 0,0 Z"
         style="fill:#58a332;fill-opacity:1;fill-rule:nonzero;stroke:none"
         id="path26"
         inkscape:connector-curvature="0" /></g><g
       id="g28"><g
         id="g30"
         clip-path="url(#clipPath32)"><g
           id="g36"
           transform="translate(317.5187,24.0947)"><path
             d="m 0,0 -5.044,14.7 -2.168,0 6.304,-17.778 1.666,0 4.867,14.328 4.844,-14.328 1.689,0 6.308,17.778 -2.093,0 L 11.328,0 6.483,14.751 4.845,14.751 0,0 Z m 23.074,8.55 c 2.446,0 3.884,-1.214 3.884,-3.558 l 0,-0.457 c -1.159,0.327 -2.347,0.559 -4.009,0.559 -3.306,0 -5.576,-1.463 -5.576,-4.236 0,-2.728 2.447,-4.088 4.87,-4.088 2.294,0 3.807,1.056 4.715,2.242 l 0,-1.966 1.868,0 0,7.969 c 0,3.434 -1.994,5.252 -5.55,5.252 -1.891,0 -3.304,-0.435 -4.742,-1.09 l 0.58,-1.587 c 1.211,0.554 2.423,0.96 3.96,0.96 m 0.074,-4.896 c 1.59,0 2.876,-0.277 3.836,-0.553 l 0,-1.26 c 0,-2.073 -1.967,-3.535 -4.364,-3.535 -1.767,0 -3.281,0.96 -3.281,2.626 0,1.666 1.363,2.722 3.809,2.722 m 10.614,11.803 -1.943,0 0,-18.411 1.943,0 0,18.411 z m 4.322,-12.611 10.341,0 c 0.027,0.232 0.027,0.429 0.027,0.605 0,3.834 -2.221,6.912 -6.079,6.912 -3.606,0 -6.257,-3.027 -6.257,-6.811 0,-4.06 2.926,-6.811 6.51,-6.811 2.47,0 4.059,0.988 5.372,2.451 l -1.211,1.085 c -1.06,-1.113 -2.321,-1.841 -4.111,-1.841 -2.298,0 -4.314,1.586 -4.592,4.41 m 0,1.44 c 0.252,2.547 1.967,4.439 4.239,4.439 2.597,0 3.959,-2.067 4.161,-4.439 l -8.4,0 z m 21.388,-3.58 0,0.051 c 0,2.344 -2.17,3.123 -4.186,3.727 -1.743,0.531 -3.356,1.011 -3.356,2.247 l 0,0.052 c 0,1.084 0.984,1.891 2.522,1.891 1.261,0 2.65,-0.48 3.86,-1.259 l 0.882,1.463 c -1.338,0.881 -3.102,1.434 -4.691,1.434 -2.573,0 -4.44,-1.485 -4.44,-3.733 l 0,-0.051 c 0,-2.394 2.27,-3.1 4.313,-3.682 1.716,-0.474 3.253,-0.982 3.253,-2.293 l 0,-0.051 c 0,-1.259 -1.134,-2.066 -2.698,-2.066 -1.54,0 -3.101,0.604 -4.515,1.66 l -0.984,-1.384 c 1.464,-1.186 3.532,-1.92 5.398,-1.92 2.599,0 4.642,1.44 4.642,3.914"
             style="fill:#575756;fill-opacity:1;fill-rule:nonzero;stroke:none"
             id="path38"
             inkscape:connector-curvature="0" /></g><g
           id="g40"
           transform="translate(199.9475,21.1411)"><path
             d="m 0,0 -4.314,6.308 c 2.246,0.83 3.784,2.621 3.784,5.472 l 0,0.052 c 0,3.631 -2.498,5.822 -6.659,5.822 l -8.072,0 0,-17.654 3.885,0 0,5.653 3.052,0 L -4.54,0 0,0 Z m -4.465,11.577 c 0,-1.485 -1.084,-2.496 -2.977,-2.496 l -3.934,0 0,5.071 3.859,0 c 1.893,0 3.052,-0.858 3.052,-2.524 l 0,-0.051 z m 18.29,-5.196 0,0.051 c 0,3.835 -2.068,7.342 -6.584,7.342 -3.936,0 -6.685,-3.179 -6.685,-7.037 l 0,-0.05 c 0,-4.14 3.003,-6.992 7.065,-6.992 2.445,0 4.262,0.96 5.523,2.524 L 10.949,4.162 C 9.889,3.179 8.956,2.773 7.672,2.773 5.956,2.773 4.744,3.682 4.366,5.427 l 9.408,0 c 0.026,0.35 0.051,0.576 0.051,0.954 m -3.733,1.441 -5.777,0 c 0.304,1.739 1.338,2.874 2.926,2.874 1.615,0 2.624,-1.163 2.851,-2.874 m 15.707,-3.711 0,0.051 c 0,2.474 -2.195,3.383 -4.087,4.01 -1.463,0.502 -2.749,0.858 -2.749,1.615 l 0,0.051 c 0,0.531 0.478,0.932 1.413,0.932 0.983,0 2.321,-0.48 3.657,-1.26 l 1.463,2.649 c -1.463,0.983 -3.33,1.564 -5.044,1.564 -2.727,0 -4.943,-1.541 -4.943,-4.292 l 0,-0.051 c 0,-2.62 2.142,-3.501 4.034,-4.055 1.488,-0.457 2.8,-0.734 2.8,-1.564 l 0,-0.051 c 0,-0.609 -0.504,-1.011 -1.614,-1.011 -1.262,0 -2.8,0.554 -4.264,1.615 L 14.826,1.79 c 1.791,-1.412 3.91,-2.044 5.803,-2.044 2.927,0 5.17,1.361 5.17,4.365 m 15.907,2.626 0,0.051 c 0,3.88 -3.102,6.986 -7.29,6.986 -4.212,0 -7.337,-3.157 -7.337,-7.037 l 0,-0.05 c 0,-3.886 3.101,-6.992 7.287,-6.992 4.214,0 7.34,3.157 7.34,7.042 m -3.781,-0.05 c 0,-1.994 -1.311,-3.683 -3.509,-3.683 -2.119,0 -3.555,1.74 -3.555,3.733 l 0,0.051 c 0,1.988 1.312,3.682 3.505,3.682 2.12,0 3.559,-1.745 3.559,-3.733 l 0,-0.05 z M 55.589,0 l 0,13.52 -3.834,0 0,-7.54 c 0,-1.818 -0.931,-2.75 -2.394,-2.75 -1.463,0 -2.321,0.932 -2.321,2.75 l 0,7.54 -3.835,0 0,-8.754 c 0,-3.1 1.691,-5.02 4.591,-5.02 1.942,0 3.079,1.033 3.959,2.169 l 0,-1.915 3.834,0 z m 10.521,9.759 0,4.015 c -2.27,0.102 -3.533,-1.112 -4.316,-2.976 l 0,2.722 -3.833,0 0,-13.52 3.833,0 0,4.992 c 0,3.231 1.564,4.767 4.113,4.767 l 0.203,0 z M 79.604,2.168 77.358,4.439 C 76.425,3.558 75.542,3.004 74.255,3.004 c -2.093,0 -3.429,1.661 -3.429,3.733 l 0,0.051 c 0,1.988 1.361,3.682 3.277,3.682 1.364,0 2.22,-0.581 3.078,-1.491 l 2.346,2.525 c -1.26,1.412 -2.85,2.27 -5.397,2.27 -4.138,0 -7.087,-3.179 -7.087,-7.037 l 0,-0.05 c 0,-3.863 2.975,-6.992 7.036,-6.992 2.699,0 4.213,1.034 5.525,2.473 m 14.046,4.213 0,0.051 c 0,3.835 -2.07,7.342 -6.584,7.342 -3.936,0 -6.685,-3.179 -6.685,-7.037 l 0,-0.05 c 0,-4.14 3.001,-6.992 7.062,-6.992 2.448,0 4.262,0.96 5.524,2.524 L 90.774,4.162 C 89.713,3.179 88.78,2.773 87.494,2.773 c -1.716,0 -2.926,0.909 -3.303,2.654 l 9.408,0 c 0.023,0.35 0.051,0.576 0.051,0.954 m -3.734,1.441 -5.776,0 c 0.301,1.739 1.334,2.874 2.926,2.874 1.611,0 2.622,-1.163 2.85,-2.874 m 15.201,-3.711 0,0.051 c 0,2.474 -2.193,3.383 -4.086,4.01 -1.464,0.502 -2.749,0.858 -2.749,1.615 l 0,0.051 c 0,0.531 0.48,0.932 1.412,0.932 0.984,0 2.321,-0.48 3.657,-1.26 l 1.463,2.649 c -1.463,0.983 -3.328,1.564 -5.044,1.564 -2.724,0 -4.944,-1.541 -4.944,-4.292 l 0,-0.051 c 0,-2.62 2.144,-3.501 4.034,-4.055 1.49,-0.457 2.802,-0.734 2.802,-1.564 l 0,-0.051 c 0,-0.609 -0.505,-1.011 -1.615,-1.011 -1.262,0 -2.799,0.554 -4.262,1.615 L 94.145,1.79 c 1.792,-1.412 3.91,-2.044 5.8,-2.044 2.929,0 5.172,1.361 5.172,4.365"
             style="fill:#575756;fill-opacity:1;fill-rule:nonzero;stroke:none"
             id="path42"
             inkscape:connector-curvature="0" /></g><path
           d="m 172.539,21.09 3.832,0 0,18.411 -3.832,0 0,-18.411 z"
           style="fill:#575756;fill-opacity:1;fill-rule:nonzero;stroke:none"
           id="path44"
           inkscape:connector-curvature="0" /><g
           id="g46"
           transform="translate(166.5352,25.8564)"><path
             d="m 0,0 c 0,-1.383 -1.211,-2.372 -3.002,-2.372 -1.236,0 -2.095,0.61 -2.095,1.643 l 0,0.051 c 0,1.209 1.009,1.864 2.649,1.864 0.934,0 1.791,-0.197 2.448,-0.502 L 0,0 Z m -2.397,8.906 c -2.296,0 -3.759,-0.429 -5.246,-1.084 l 0.958,-2.926 c 1.235,0.452 2.27,0.729 3.733,0.729 1.917,0 2.902,-0.881 2.902,-2.468 l 0,-0.232 c -0.96,0.328 -1.945,0.559 -3.307,0.559 -3.202,0 -5.446,-1.366 -5.446,-4.314 l 0,-0.051 c 0,-2.677 2.093,-4.14 4.641,-4.14 1.866,0 3.152,0.684 4.086,1.717 l 0,-1.463 3.708,0 0,7.845 c 0,3.66 -1.842,5.828 -6.029,5.828"
             style="fill:#575756;fill-opacity:1;fill-rule:nonzero;stroke:none"
             id="path48"
             inkscape:connector-curvature="0" /></g><g
           id="g50"
           transform="translate(152.918,31.8882)"><path
             d="m 0,0 0,2.722 -3.835,0 0,-13.52 3.835,0 0,4.998 c 0,3.225 1.563,4.766 4.112,4.766 l 0.202,0 0,4.01 C 2.043,3.078 0.781,1.864 0,0"
             style="fill:#575756;fill-opacity:1;fill-rule:nonzero;stroke:none"
             id="path52"
             inkscape:connector-curvature="0" /></g><g
           id="g54"
           transform="translate(142.3741,27.0708)"><path
             d="m 0,0 c 0,-1.818 -0.934,-2.75 -2.397,-2.75 -1.463,0 -2.318,0.932 -2.318,2.75 l 0,7.54 -3.835,0 0,-8.754 c 0,-3.1 1.69,-5.021 4.592,-5.021 1.941,0 3.075,1.034 3.958,2.174 l 0,-1.92 3.835,0 0,13.521 L 0,7.54 0,0 Z"
             style="fill:#575756;fill-opacity:1;fill-rule:nonzero;stroke:none"
             id="path56"
             inkscape:connector-curvature="0" /></g><g
           id="g58"
           transform="translate(128.4598,38.0664)"><path
             d="m 0,0 -3.835,0 0,-3.456 -1.614,0 0,-3.281 1.614,0 0,-6.405 c 0,-3.129 1.588,-4.06 3.934,-4.06 1.288,0 2.22,0.299 3.027,0.779 l 0,3.078 c -0.554,-0.3 -1.186,-0.48 -1.891,-0.48 -0.858,0 -1.235,0.429 -1.235,1.316 l 0,5.772 3.177,0 0,3.281 L 0,-3.456 0,0 Z"
             style="fill:#575756;fill-opacity:1;fill-rule:nonzero;stroke:none"
             id="path60"
             inkscape:connector-curvature="0" /></g><g
           id="g62"
           transform="translate(117.7889,25.8564)"><path
             d="m 0,0 c 0,-1.383 -1.211,-2.372 -3.002,-2.372 -1.235,0 -2.093,0.61 -2.093,1.643 l 0,0.051 c 0,1.209 1.01,1.864 2.65,1.864 0.931,0 1.789,-0.197 2.445,-0.502 L 0,0 Z m -2.396,8.906 c -2.296,0 -3.757,-0.429 -5.247,-1.084 l 0.959,-2.926 c 1.237,0.452 2.271,0.729 3.733,0.729 1.918,0 2.9,-0.881 2.9,-2.468 l 0,-0.232 c -0.958,0.328 -1.941,0.559 -3.302,0.559 -3.205,0 -5.451,-1.366 -5.451,-4.314 l 0,-0.051 c 0,-2.677 2.094,-4.14 4.642,-4.14 1.866,0 3.153,0.684 4.086,1.717 l 0,-1.463 3.708,0 0,7.845 c 0,3.66 -1.84,5.828 -6.028,5.828"
             style="fill:#575756;fill-opacity:1;fill-rule:nonzero;stroke:none"
             id="path64"
             inkscape:connector-curvature="0" /></g><g
           id="g66"
           transform="translate(103.6521,27.8784)"><path
             d="m 0,0 -8.275,10.866 -3.581,0 0,-17.655 3.833,0 0,11.228 8.552,-11.228 3.305,0 0,17.655 L 0,10.866 0,0 Z"
             style="fill:#575756;fill-opacity:1;fill-rule:nonzero;stroke:none"
             id="path68"
             inkscape:connector-curvature="0" /></g><g
           id="g70"
           transform="translate(314.1697,47.3057)"><path
             d="m 0,0 -1.313,1.288 c -1.69,-1.616 -3.277,-2.547 -5.7,-2.547 -3.884,0 -6.834,3.202 -6.834,7.319 0,4.111 2.923,7.263 6.834,7.263 2.397,0 4.062,-1.011 5.549,-2.423 l 1.363,1.462 c -1.766,1.666 -3.683,2.802 -6.887,2.802 -5.197,0 -8.928,-4.112 -8.928,-9.155 0,-5.1 3.756,-9.11 8.853,-9.11 3.204,0 5.221,1.237 7.063,3.101 m 13.909,10.245 -2.067,0 -4.187,-10.872 -4.743,10.872 -2.144,0 5.928,-12.99 C 5.914,-4.585 5.183,-5.19 4.023,-5.19 3.19,-5.19 2.609,-5.043 1.98,-4.715 L 1.325,-6.251 c 0.88,-0.43 1.688,-0.656 2.774,-0.656 1.967,0 3.228,0.983 4.337,3.682 l 5.473,13.47 z M 25.86,7.923 c -0.707,1.463 -2.068,2.598 -4.187,2.598 -2.194,0 -3.354,-1.186 -4.212,-2.473 l 0,2.197 -1.943,0 0,-13.04 1.943,0 0,7.438 c 0,2.399 1.564,4.116 3.632,4.116 2.069,0 3.354,-1.44 3.354,-3.885 l 0,-7.669 1.919,0 0,7.517 c 0,2.569 1.64,4.037 3.607,4.037 2.119,0 3.379,-1.417 3.379,-3.936 l 0,-7.618 1.944,0 0,8.07 c 0,3.23 -1.842,5.246 -4.844,5.246 -2.271,0 -3.658,-1.157 -4.592,-2.598 M 39.204,2.4 c 0,3.936 2.321,5.981 5.172,5.981 l 0.152,0 0,2.09 C 42.054,10.572 40.164,9.008 39.204,6.839 l 0,3.406 -1.941,0 0,-13.04 1.941,0 0,5.195 z M 55.42,2.779 c 0,-2.446 -1.689,-4.089 -3.909,-4.089 -2.295,0 -3.607,1.514 -3.607,3.936 l 0,7.619 -1.942,0 0,-8.099 c 0,-3.101 1.841,-5.218 4.995,-5.218 2.244,0 3.581,1.129 4.463,2.547 l 0,-2.27 1.918,0 0,13.04 -1.918,0 0,-7.466 z"
             style="fill:#575756;fill-opacity:1;fill-rule:nonzero;stroke:none"
             id="path72"
             inkscape:connector-curvature="0" /></g><g
           id="g74"
           transform="translate(107.9651,47.272)"><path
             d="M 0,0 -2.471,2.496 C -3.86,1.237 -5.095,0.429 -7.114,0.429 c -3.026,0 -5.12,2.519 -5.12,5.546 l 0,0.051 c 0,3.027 2.145,5.5 5.12,5.5 1.767,0 3.153,-0.756 4.514,-1.993 l 2.473,2.846 c -1.638,1.616 -3.631,2.728 -6.96,2.728 -5.424,0 -9.208,-4.111 -9.208,-9.132 l 0,-0.051 c 0,-5.066 3.859,-9.081 9.056,-9.081 3.405,0 5.423,1.214 7.239,3.157 m 14.449,10.668 -3.988,0 -2.949,-9.205 -3.079,9.205 -4.06,0 L 5.67,-2.903 C 5.342,-3.586 4.99,-3.79 4.333,-3.79 c -0.505,0 -1.135,0.232 -1.639,0.531 L 1.407,-6.032 c 0.984,-0.581 2.018,-0.931 3.405,-0.931 2.296,0 3.406,1.033 4.44,3.783 l 5.197,13.848 z m 9.492,1.514 0,3.173 c -0.706,0.232 -1.513,0.379 -2.723,0.379 -2.698,0 -4.187,-1.361 -4.187,-4.338 l 0,-0.852 -1.59,0 0,-3.157 1.59,0 0,-10.239 3.834,0 0,10.239 3.052,0 0,3.129 -3.103,0 0,0.53 c 0,1.006 0.504,1.463 1.387,1.463 0.656,0 1.186,-0.13 1.74,-0.327 m 15.274,-8.302 0,0.051 c 0,3.885 -3.102,6.991 -7.29,6.991 -4.212,0 -7.34,-3.157 -7.34,-7.042 l 0,-0.051 c 0,-3.88 3.102,-6.986 7.289,-6.986 4.213,0 7.341,3.157 7.341,7.037 M 35.432,3.829 c 0,-1.988 -1.314,-3.683 -3.507,-3.683 -2.119,0 -3.557,1.746 -3.557,3.734 l 0,0.051 c 0,1.993 1.313,3.682 3.506,3.682 2.121,0 3.558,-1.739 3.558,-3.733 l 0,-0.051 z m 18.49,-0.299 0,0.051 c 0,3.828 -2.067,7.341 -6.583,7.341 -3.934,0 -6.685,-3.179 -6.685,-7.042 l 0,-0.051 c 0,-4.134 3.002,-6.986 7.065,-6.986 2.447,0 4.262,0.96 5.522,2.524 L 51.047,1.31 c -1.058,-0.982 -1.992,-1.389 -3.278,-1.389 -1.717,0 -2.926,0.909 -3.305,2.648 l 9.407,0 c 0.026,0.356 0.051,0.582 0.051,0.961 m -3.733,1.434 -5.776,0 c 0.303,1.74 1.337,2.88 2.926,2.88 1.615,0 2.623,-1.163 2.85,-2.88 m 13.35,-7.263 0,3.078 c -0.556,-0.305 -1.188,-0.48 -1.894,-0.48 -0.855,0 -1.235,0.43 -1.235,1.31 l 0,5.778 3.179,0 0,3.281 -3.179,0 0,3.451 -3.835,0 0,-3.451 -1.612,0 0,-3.281 1.612,0 0,-6.405 c 0,-3.128 1.59,-4.06 3.936,-4.06 1.286,0 2.221,0.299 3.028,0.779 m 14.311,-0.553 0,8.748 c 0,3.106 -1.691,5.026 -4.592,5.026 -1.941,0 -3.075,-1.039 -3.959,-2.174 l 0,6.811 -3.834,0 0,-18.411 3.834,0 0,7.539 c 0,1.819 0.935,2.75 2.395,2.75 1.464,0 2.321,-0.931 2.321,-2.75 l 0,-7.539 3.835,0 z"
             style="fill:#575756;fill-opacity:1;fill-rule:nonzero;stroke:none"
             id="path76"
             inkscape:connector-curvature="0" /></g><g
           id="g78"
           transform="translate(211.8434,44.3745)"><path
             d="m 0,0 0,17.66 -3.833,0 0,-10.871 -8.273,10.871 -3.582,0 0,-17.66 3.832,0 0,11.228 L -3.304,0 0,0 Z m 14.441,0 0,7.845 c 0,3.659 -1.84,5.828 -6.028,5.828 -2.295,0 -3.758,-0.429 -5.246,-1.085 L 4.124,9.663 c 1.238,0.452 2.269,0.734 3.733,0.734 1.918,0 2.901,-0.886 2.901,-2.473 l 0,-0.226 C 9.799,8.025 8.816,8.251 7.454,8.251 4.25,8.251 2.005,6.89 2.005,3.937 l 0,-0.051 c 0,-2.672 2.095,-4.135 4.641,-4.135 1.868,0 3.153,0.678 4.088,1.712 l 0,-1.463 3.707,0 z M 10.809,4.772 C 10.809,3.383 9.599,2.4 7.806,2.4 6.571,2.4 5.714,3.005 5.714,4.038 l 0,0.051 c 0,1.208 1.009,1.864 2.648,1.864 0.933,0 1.791,-0.198 2.447,-0.503 l 0,-0.678 z m 13.797,-4.212 0,3.077 c -0.554,-0.305 -1.185,-0.48 -1.892,-0.48 -0.857,0 -1.235,0.429 -1.235,1.31 l 0,5.778 3.177,0 0,3.276 -3.177,0 0,3.456 -3.835,0 0,-3.456 -1.614,0 0,-3.276 1.614,0 0,-6.41 c 0,-3.129 1.591,-4.061 3.937,-4.061 1.283,0 2.218,0.305 3.025,0.786 M 39.229,0 l 0,13.521 -3.834,0 0,-7.54 C 35.395,4.163 34.46,3.23 33,3.23 c -1.464,0 -2.321,0.933 -2.321,2.751 l 0,7.54 -3.835,0 0,-8.749 c 0,-3.105 1.69,-5.021 4.592,-5.021 1.941,0 3.074,1.034 3.959,2.169 l 0,-1.92 3.834,0 z m 11.021,9.765 0,4.009 c -2.268,0.102 -3.531,-1.107 -4.312,-2.976 l 0,2.723 -3.833,0 0,-13.521 3.833,0 0,4.998 c 0,3.225 1.564,4.767 4.111,4.767 l 0.201,0 z m 5.409,3.756 -3.833,0 0,-13.521 3.833,0 0,13.521 z m 16.279,-6.783 0,0.051 c 0,3.885 -3.104,6.985 -7.291,6.985 -4.214,0 -7.34,-3.151 -7.34,-7.036 l 0,-0.051 c 0,-3.886 3.102,-6.986 7.29,-6.986 4.212,0 7.341,3.151 7.341,7.037 M 68.153,6.687 c 0,-1.994 -1.312,-3.682 -3.506,-3.682 -2.119,0 -3.558,1.739 -3.558,3.733 l 0,0.051 c 0,1.993 1.311,3.682 3.508,3.682 2.119,0 3.556,-1.74 3.556,-3.733 l 0,-0.051 z m 9.38,11.73 -3.834,0 0,-18.417 3.834,0 0,18.417 z"
             style="fill:#575756;fill-opacity:1;fill-rule:nonzero;stroke:none"
             id="path80"
             inkscape:connector-curvature="0" /></g><g
           id="g82"
           transform="translate(267.7383,61.3003)"><path
             d="m 0,0 c 0,-1.113 -0.902,-2.011 -2.014,-2.011 -1.112,0 -2.012,0.898 -2.012,2.011 0,1.113 0.9,2.011 2.012,2.011 C -0.902,2.011 0,1.113 0,0"
             style="fill:#575756;fill-opacity:1;fill-rule:nonzero;stroke:none"
             id="path84"
             inkscape:connector-curvature="0" /></g></g></g></g></svg>