<?xml version="1.0" encoding="utf-8"?>
<!-- Generator: Adobe Illustrator 16.0.0, SVG Export Plug-In . SVG Version: 6.00 Build 0)  -->
<!DOCTYPE svg PUBLIC "-//W3C//DTD SVG 1.1//EN" "http://www.w3.org/Graphics/SVG/1.1/DTD/svg11.dtd">
<svg version="1.1" id="Layer_1" xmlns="http://www.w3.org/2000/svg" xmlns:xlink="http://www.w3.org/1999/xlink" x="0px" y="0px"
	 width="600px" height="150px" viewBox="0 0 600 150" enable-background="new 0 0 600 150" xml:space="preserve">
<g>
	<path fill="#FFFFFF" d="M39.466,85.419H23.559v25.613H9.102V38.737h31.603c13.635,0,24.893,7.542,24.893,22.927
		C65.597,78.395,54.442,85.419,39.466,85.419z M40.186,52.783H23.559v18.59h16.839c6.713,0,10.326-3.098,10.326-9.398
		C50.724,55.673,46.592,52.783,40.186,52.783z"/>
	<path fill="#FFFFFF" d="M132.512,111.032V84.488c0-3.926,0.206-13.115,0.206-15.904c-1.031,2.685-3.198,7.848-5.06,11.978
		l-14.665,30.318L98.325,80.563c-1.856-4.13-4.027-9.293-5.058-11.978c0,2.789,0.203,11.978,0.203,15.904v26.544H79.323V38.737
		h13.944l15.077,32.738c1.859,4.028,4.029,9.503,4.957,12.085c0.93-2.686,2.998-7.952,4.858-12.085l14.56-32.738h14.256v72.295
		H132.512z"/>
	<path fill="#FFFFFF" d="M162.72,111.032V38.737h14.461v58.044h36.262v14.251H162.72z"/>
	<path fill="#FFFFFF" d="M246.049,22.639v106.181c0,0.854,0.693,1.547,1.547,1.547c0.855,0,1.547-0.692,1.547-1.547V22.639
		c0-0.854-0.692-1.547-1.547-1.547C246.742,21.092,246.049,21.784,246.049,22.639z"/>
	<g>
		<path fill="#FFFFFF" d="M292.262,56.803h-7.233v11.703h-3.32v-29.79h11.149c5.404,0,9.491,2.851,9.491,8.895
			C302.35,53.525,298.22,56.803,292.262,56.803z M292.731,41.737h-7.703v12.044h7.277c4.553,0,6.724-2.085,6.724-6.043
			C299.03,43.908,296.816,41.737,292.731,41.737z"/>
		<path fill="#FFFFFF" d="M306.986,68.505V39.27l3.193-1.788v31.024H306.986z"/>
		<path fill="#FFFFFF" d="M322.86,76.377h-3.19l3.063-8.127l-7.959-22.086h3.362l5.447,16.214l0.768,2.297l0.765-2.255l5.489-16.256
			h3.361L322.86,76.377z"/>
		<path fill="#FFFFFF" d="M364.31,68.505V55.441c0-5.107-1.575-6.979-4.808-6.979c-3.021,0-4.98,2.042-4.98,6.979v13.064h-3.191
			V55.441c0-5.107-1.702-6.979-4.808-6.979c-3.064,0-4.98,2.042-4.98,6.979v13.064h-3.192V46.163h3.192v2.724
			c1.148-1.915,3.021-3.191,5.661-3.191c3.148,0,5.063,1.702,6.127,3.83c1.318-2.128,3.15-3.83,6.765-3.83
			c4.556,0,7.407,2.681,7.407,9.192v13.618H364.31z"/>
		<path fill="#FFFFFF" d="M382.012,68.973c-5.446,0-9.618-4.042-9.618-11.617s4.342-11.66,9.79-11.66
			c5.446,0,9.616,3.915,9.616,11.49S387.459,68.973,382.012,68.973z M382.098,48.461c-3.872,0-6.469,2.936-6.469,8.809
			c0,5.873,2.597,8.937,6.469,8.937c3.873,0,6.511-3.064,6.511-8.937C388.608,51.397,385.971,48.461,382.098,48.461z"/>
		<path fill="#FFFFFF" d="M410.695,68.505v-2.724c-1.277,1.873-3.362,3.191-6.172,3.191c-4.724,0-7.829-2.766-7.829-9.192V46.163
			h3.191v13.065c0,4.808,1.702,6.979,5.275,6.979c3.108,0,5.534-2.085,5.534-6.979V46.163h3.189v22.342H410.695z"/>
		<path fill="#FFFFFF" d="M424.184,48.844v14.554c0,2,0.554,2.681,2.257,2.681c1.277,0,2.127-0.213,3.147-0.639l-0.211,2.767
			c-1.234,0.51-2.427,0.765-4.129,0.765c-2.766,0-4.254-1.362-4.254-5.063V48.844h-2.768v-2.681h2.768V39.27l3.189-1.788v8.682
			h5.534v2.681H424.184z"/>
		<path fill="#FFFFFF" d="M449.078,68.505V55.441c0-4.809-1.702-6.979-5.277-6.979c-3.105,0-5.531,2.085-5.531,6.979v13.064h-3.192
			V39.27l3.192-1.788v11.405c1.277-1.872,3.361-3.191,6.169-3.191c4.727,0,7.832,2.766,7.832,9.192v13.618H449.078z"/>
		<path fill="#FFFFFF" d="M491.464,68.505V48.333v-3.192c-0.298,1.15-1.151,3.362-1.787,4.937l-7.958,19.193l-7.832-19.193
			c-0.638-1.532-1.445-3.787-1.743-4.937v3.192v20.172h-3.193v-29.79h3.704l7.021,17.831c0.724,1.787,1.787,4.553,2.127,5.788
			c0.383-1.276,1.446-4.042,2.127-5.788l7.109-17.831h3.614v29.79H491.464z"/>
		<path fill="#FFFFFF" d="M514.062,68.505v-2.724c-1.575,1.703-3.789,3.191-6.979,3.191c-3.491,0-7.151-1.744-7.151-7.149
			c0-5.021,4.13-7.149,8.556-7.149c2.255,0,4.255,0.554,5.575,1.277v-2.639c0-3.319-1.575-4.937-4.853-4.937
			c-2.341,0-4.257,0.638-6.085,1.702l-1.193-2.596c1.959-1.064,4.597-1.787,7.491-1.787c4.808,0,7.829,2.042,7.829,7.234v15.576
			H514.062z M514.062,58.504c-1.448-0.809-3.021-1.276-5.747-1.276c-3.275,0-5.232,1.575-5.232,4.383
			c0,3.319,1.829,4.766,4.551,4.766c2.895,0,5.066-1.489,6.429-3.361V58.504z"/>
		<path fill="#FFFFFF" d="M534.741,49.483c-0.893-0.511-1.871-0.851-3.362-0.851c-3.105,0-4.851,2.511-4.851,6.766v13.107h-3.191
			V46.163h3.191v2.767c1.021-1.788,3.148-3.234,5.532-3.234c1.659,0,2.725,0.213,3.491,0.553L534.741,49.483z"/>
		<path fill="#FFFFFF" d="M541.678,42.163c-1.318,0-2.34-1.021-2.34-2.255c0-1.276,1.021-2.298,2.34-2.298
			c1.192,0,2.214,1.021,2.214,2.298C543.892,41.142,542.87,42.163,541.678,42.163z M540.019,68.505V46.163h3.192v22.342H540.019z"/>
		<path fill="#FFFFFF" d="M563.638,68.505V55.441c0-4.809-1.702-6.979-5.277-6.979c-3.106,0-5.534,2.085-5.534,6.979v13.064h-3.189
			V46.163h3.189v2.724c1.278-1.872,3.362-3.191,6.172-3.191c4.724,0,7.83,2.766,7.83,9.192v13.618H563.638z"/>
		<path fill="#FFFFFF" d="M589.809,58.419h-14.896c0.298,4.766,2.554,7.788,6.214,7.788c2.597,0,4.127-0.766,6.169-2.127
			l1.491,2.297c-2.681,1.703-4.64,2.596-8.001,2.596c-4.084,0-9.064-2.979-9.064-11.745c0-7.107,3.914-11.533,9.234-11.533
			c5.831,0,8.979,4.596,8.979,10.979C589.936,57.44,589.893,57.909,589.809,58.419z M580.913,48.461c-3.319,0-5.617,2.383-6,7.362
			h12.043C586.702,51.483,584.829,48.461,580.913,48.461z"/>
		<path fill="#FFFFFF" d="M281.709,110.975V81.188h3.32v26.767h14.725v3.021H281.709z"/>
		<path fill="#FFFFFF" d="M317.755,110.975v-2.722c-1.575,1.701-3.789,3.19-6.98,3.19c-3.489,0-7.15-1.745-7.15-7.149
			c0-5.021,4.129-7.149,8.556-7.149c2.256,0,4.256,0.553,5.575,1.277v-2.639c0-3.319-1.575-4.937-4.854-4.937
			c-2.34,0-4.256,0.64-6.084,1.702l-1.193-2.597c1.959-1.063,4.597-1.786,7.491-1.786c4.808,0,7.829,2.043,7.829,7.233v15.575
			H317.755z M317.755,100.975c-1.448-0.808-3.021-1.277-5.748-1.277c-3.274,0-5.232,1.575-5.232,4.384
			c0,3.318,1.829,4.767,4.553,4.767c2.895,0,5.065-1.489,6.428-3.362V100.975z"/>
		<path fill="#FFFFFF" d="M336.521,111.443c-2.81,0-4.724-1.19-6.299-2.979v2.51h-3.192V81.74l3.192-1.788v11.405
			c1.575-1.703,3.702-3.191,6.724-3.191c4.468,0,8.001,3.404,8.001,11.276C344.946,107.358,341.202,111.443,336.521,111.443z
			 M336.138,90.933c-2.385,0-4.341,1.276-5.916,3.234v11.148c1.235,1.873,3.404,3.362,6.043,3.362c3.702,0,5.534-3.192,5.534-9.192
			C341.799,93.868,339.669,90.933,336.138,90.933z"/>
		<path fill="#FFFFFF" d="M358.394,111.443c-5.447,0-9.618-4.044-9.618-11.618s4.341-11.659,9.789-11.659
			c5.446,0,9.616,3.915,9.616,11.49S363.84,111.443,358.394,111.443z M358.479,90.933c-3.872,0-6.468,2.936-6.468,8.808
			c0,5.873,2.596,8.938,6.468,8.938c3.873,0,6.512-3.064,6.512-8.938C364.99,93.868,362.352,90.933,358.479,90.933z"/>
		<path fill="#FFFFFF" d="M384.606,91.952c-0.893-0.51-1.871-0.851-3.362-0.851c-3.105,0-4.85,2.512-4.85,6.768v13.105h-3.193
			V88.634h3.193v2.766c1.021-1.787,3.148-3.233,5.53-3.233c1.661,0,2.727,0.212,3.491,0.552L384.606,91.952z"/>
		<path fill="#FFFFFF" d="M400.996,110.975v-2.722c-1.575,1.701-3.788,3.19-6.979,3.19c-3.49,0-7.149-1.745-7.149-7.149
			c0-5.021,4.128-7.149,8.554-7.149c2.257,0,4.257,0.553,5.575,1.277v-2.639c0-3.319-1.575-4.937-4.853-4.937
			c-2.341,0-4.255,0.64-6.084,1.702l-1.192-2.597c1.957-1.063,4.596-1.786,7.49-1.786c4.809,0,7.83,2.043,7.83,7.233v15.575H400.996
			z M400.996,100.975c-1.448-0.808-3.021-1.277-5.746-1.277c-3.275,0-5.233,1.575-5.233,4.384c0,3.318,1.829,4.767,4.553,4.767
			c2.895,0,5.065-1.489,6.427-3.362V100.975z"/>
		<path fill="#FFFFFF" d="M414.357,91.314v14.555c0,2,0.554,2.682,2.256,2.682c1.276,0,2.127-0.214,3.148-0.639l-0.213,2.766
			c-1.234,0.511-2.427,0.766-4.129,0.766c-2.766,0-4.254-1.362-4.254-5.063V91.314h-2.768v-2.681h2.768V81.74l3.191-1.788v8.682
			h5.532v2.681H414.357z"/>
		<path fill="#FFFFFF" d="M432.825,111.443c-5.447,0-9.618-4.044-9.618-11.618s4.341-11.659,9.789-11.659
			c5.446,0,9.616,3.915,9.616,11.49S438.271,111.443,432.825,111.443z M432.91,90.933c-3.872,0-6.468,2.936-6.468,8.808
			c0,5.873,2.596,8.938,6.468,8.938c3.873,0,6.512-3.064,6.512-8.938C439.422,93.868,436.783,90.933,432.91,90.933z"/>
		<path fill="#FFFFFF" d="M459.038,91.952c-0.893-0.51-1.871-0.851-3.361-0.851c-3.106,0-4.851,2.512-4.851,6.768v13.105h-3.192
			V88.634h3.192v2.766c1.021-1.787,3.148-3.233,5.53-3.233c1.661,0,2.727,0.212,3.491,0.552L459.038,91.952z"/>
		<path fill="#FFFFFF" d="M470.36,118.848h-3.192l3.063-8.128l-7.959-22.086h3.362l5.448,16.214l0.767,2.298l0.765-2.255
			l5.491-16.257h3.361L470.36,118.848z"/>
	</g>
</g>
</svg>
