<svg width="17" height="16" viewBox="0 0 17 16" fill="none" xmlns="http://www.w3.org/2000/svg">
<g id="land" clip-path="url(#clip0_515_3560)">
<g id="Group">
<g id="Group_2">
<path id="Vector" d="M15.0384 6.74707L8.50137 11.0061L1.96434 6.74707L0.502747 7.50785L8.50137 12.699L16.5 7.50785L15.0384 6.74707Z" fill="black"/>
</g>
</g>
<g id="Group_3">
<g id="Group_4">
<path id="Vector_2" d="M15.0384 9.55811L8.50137 13.8172L1.96434 9.55811L0.502747 10.3189L8.50137 15.51L16.5 10.3189L15.0384 9.55811Z" fill="black"/>
</g>
</g>
<g id="Group_5">
<g id="Group_6">
<path id="Vector_3" d="M5.34884 2.13428L3.89325 2.90853L6.1395 4.36193L7.55528 3.50018L5.34884 2.13428Z" fill="black"/>
</g>
</g>
<g id="Group_7">
<g id="Group_8">
<path id="Vector_4" d="M6.12421 5.46826L3.84465 6.85582L5.41856 7.88132L7.63599 6.44645L6.12421 5.46826Z" fill="black"/>
</g>
</g>
<g id="Group_9">
<g id="Group_10">
<path id="Vector_5" d="M8.44875 4.05322L7.01309 4.9271L8.4985 5.88825L9.9235 4.96616L8.44875 4.05322Z" fill="black"/>
</g>
</g>
<g id="Group_11">
<g id="Group_12">
<path id="Vector_6" d="M10.8051 5.51221L9.36099 6.44658L11.5786 7.88146L13.0665 6.91205L10.8051 5.51221Z" fill="black"/>
</g>
</g>
<g id="Group_13">
<g id="Group_14">
<path id="Vector_7" d="M11.6233 2.12109L9.34659 3.50688L10.7942 4.403L13.1037 2.90856L11.6233 2.12109Z" fill="black"/>
</g>
</g>
<g id="Group_15">
<g id="Group_16">
<path id="Vector_8" d="M8.4985 7.00439L6.27809 8.44118L8.49862 9.88799L10.7191 8.44121L8.4985 7.00439Z" fill="black"/>
</g>
</g>
<g id="Group_17">
<g id="Group_18">
<path id="Vector_9" d="M2.94659 3.41211L0.5 4.69689L2.97419 6.28861L5.25066 4.90295L2.94659 3.41211Z" fill="black"/>
</g>
</g>
<g id="Group_19">
<g id="Group_20">
<path id="Vector_10" d="M8.49863 0.489746L6.30653 1.62475L8.4531 2.95359L10.6616 1.60925L8.49863 0.489746Z" fill="black"/>
</g>
</g>
<g id="Group_21">
<g id="Group_22">
<path id="Vector_11" d="M14.0504 3.41211L11.6757 4.9487L13.934 6.34673L16.4973 4.69702L14.0504 3.41211Z" fill="black"/>
</g>
</g>
</g>
<defs>
<clipPath id="clip0_515_3560">
<rect width="16" height="16" fill="black" transform="translate(0.5)"/>
</clipPath>
</defs>
</svg>
