<svg width="17" height="16" viewBox="0 0 17 16" fill="none" xmlns="http://www.w3.org/2000/svg">
<g id="calculator" clip-path="url(#clip0_379_11021)">
<g id="g552">
<path id="path554" d="M8.005 10.4336H8.91679V9.52181H8.005V10.4336Z" fill="black"/>
<path id="path556" d="M8.005 13.9351H8.91679V13.0233H8.005V13.9351Z" fill="black"/>
<path id="path558" d="M8.005 6.99707H8.91679V6.08529H8.005V6.99707Z" fill="black"/>
<path id="path560" d="M11.4761 6.99707H12.3879V6.08529H11.4761V6.99707Z" fill="black"/>
<path id="path562" d="M11.4761 13.9351H12.3879V13.0233H11.4761V13.9351Z" fill="black"/>
<path id="path564" d="M11.4761 10.4336H12.3879V9.52181H11.4761V10.4336Z" fill="black"/>
<path id="path566" d="M5.44978 13.0233H4.53796V13.9351H5.44978V13.0233Z" fill="black"/>
<path id="path568" d="M0.5 16H16.5V3.90625H0.5V16ZM10.5386 5.14769H13.3254V7.93444H10.5386V5.14769ZM7.06747 5.14769H9.85422V7.93444H7.06747V5.14769ZM3.6005 5.14769H6.38728V7.93444H3.6005V5.14769ZM10.5386 8.58416H13.3254V11.3709H10.5386V8.58416ZM7.06747 8.58416H9.85422V11.3709H7.06747V8.58416ZM3.6005 8.58416H6.38728V11.3709H3.6005V8.58416ZM10.5386 12.0859H13.3254V14.8727H10.5386V12.0859ZM7.06747 12.0859H9.85422V14.8727H7.06747V12.0859ZM3.6005 12.0859H6.38728V14.8727H3.6005V12.0859Z" fill="black"/>
<path id="path570" d="M0.5 2.96875H16.5V0H0.5V2.96875ZM12.4063 1.02759H13.307V1.96509H12.4063V1.02759Z" fill="black"/>
<path id="path572" d="M4.53796 10.4336H5.44978V9.52181H4.53796V10.4336Z" fill="black"/>
<path id="path574" d="M4.53796 6.99707H5.44978V6.08529H4.53796V6.99707Z" fill="black"/>
</g>
</g>
<defs>
<clipPath id="clip0_379_11021">
<rect width="16" height="16" fill="black" transform="translate(0.5)"/>
</clipPath>
</defs>
</svg>
