<svg width="20" height="20" viewBox="0 0 20 20" fill="none" xmlns="http://www.w3.org/2000/svg">
<g id="Group">
<path id="Vector" d="M17.6471 2.94132V0.588379H11.7647C11.0625 0.588379 10.4315 0.898026 10 1.38748C9.56851 0.898026 8.93753 0.588379 8.23529 0.588379H2.35294V2.94132H0V19.4119H20V2.94132H17.6471ZM11.7647 1.76485H16.4706V15.8825H10.5882V2.94132C10.5882 2.29261 11.116 1.76485 11.7647 1.76485ZM3.52941 1.76485H8.23529C8.884 1.76485 9.41177 2.29261 9.41177 2.94132V15.8825H3.52941V1.76485ZM18.8235 18.2354H1.17647V4.11779H2.35294V17.059H17.6471V4.11779H18.8235V18.2354Z" fill="white"/>
<path id="Vector_2" d="M4.70593 5.88232H8.23534V7.05879H4.70593V5.88232Z" fill="white"/>
<path id="Vector_3" d="M4.70593 3.52979H8.23534V4.70626H4.70593V3.52979Z" fill="white"/>
<path id="Vector_4" d="M4.70593 8.23535H8.23534V9.41182H4.70593V8.23535Z" fill="white"/>
<path id="Vector_5" d="M4.70593 10.5884H8.23534V11.7648H4.70593V10.5884Z" fill="white"/>
<path id="Vector_6" d="M4.70593 12.9414H8.23534V14.1179H4.70593V12.9414Z" fill="white"/>
<path id="Vector_7" d="M11.7646 5.88232H15.2941V7.05879H11.7646V5.88232Z" fill="white"/>
<path id="Vector_8" d="M11.7646 3.52979H15.2941V4.70626H11.7646V3.52979Z" fill="white"/>
<path id="Vector_9" d="M11.7646 8.23535H15.2941V9.41182H11.7646V8.23535Z" fill="white"/>
<path id="Vector_10" d="M11.7646 10.5884H15.2941V11.7648H11.7646V10.5884Z" fill="white"/>
<path id="Vector_11" d="M11.7646 12.9414H15.2941V14.1179H11.7646V12.9414Z" fill="white"/>
</g>
</svg>
