<svg width="20" height="20" viewBox="0 0 20 20" fill="none" xmlns="http://www.w3.org/2000/svg">
<g id="Group">
<path id="Vector" d="M19.1922 15.3818L12.4835 9.54438L14.1655 7.71145L14.853 8.39895L15.4474 7.80454L16.8389 9.87122L20 6.71001L17.9995 5.25243L18.6105 4.64142L15.3419 1.37294C14.1382 0.169268 12.1797 0.169346 10.9761 1.37294L9.91662 2.43243L10.7436 3.25939L11.1922 2.81071C11.4242 2.57868 11.8018 2.57868 12.0338 2.81071C12.2715 3.04833 12.2833 3.45349 12.0592 3.67767L11.0954 4.64146L11.8559 5.402L9.83334 7.24481L7.35537 5.09028C7.71158 3.84146 7.37147 2.49353 6.43604 1.5581C5.40326 0.525205 3.86315 0.217744 2.51252 0.774814L1.70209 1.10903L3.76522 3.17212C3.98905 3.39591 3.98905 3.76013 3.76522 3.98392C3.43209 4.31704 3.12057 4.15106 2.95342 3.98392L0.890295 1.92083L0.556076 2.73122C-0.00212669 4.08485 0.307365 5.62696 1.34455 6.66001C2.03155 7.34423 2.95885 7.7031 3.89498 7.70302C4.33307 7.70298 4.77334 7.62435 5.19139 7.46368L7.24686 9.60153L0.750764 15.5204C0.28135 15.9493 0.0149436 16.5357 0.000607694 17.1713C-0.0137282 17.807 0.225998 18.4047 0.675608 18.8543C1.11252 19.2912 1.6892 19.5299 2.30479 19.5299C2.32272 19.5299 2.34069 19.5297 2.35865 19.5293C2.99436 19.515 3.58065 19.2486 4.00869 18.7801L9.89951 12.3604L16.0042 18.7096C16.4428 19.1699 17.0346 19.4239 17.6705 19.4249H17.6741C18.3085 19.4249 18.8997 19.1727 19.3389 18.7146C19.779 18.2556 20.0061 17.653 19.9784 17.0178C19.9506 16.3825 19.6719 15.8019 19.1922 15.3818ZM9.10338 9.49212L10.0631 10.4524L8.26416 12.4127L7.13635 11.2844L9.10338 9.49212ZM14.515 2.19989L16.9566 4.64142L16.2056 5.39239L18.2061 6.84997L17.016 8.04021L15.6245 5.97353L14.853 6.74501L12.7494 4.64142L12.8862 4.50458C13.2212 4.16958 13.4002 3.71771 13.3903 3.2322C13.3806 2.7588 13.1926 2.31544 12.8609 1.98368C12.7655 1.88825 12.6617 1.80603 12.5519 1.73708C13.2191 1.5156 13.9849 1.66981 14.515 2.19989ZM13.3377 6.88376L10.8545 9.58985L9.96877 8.7036L12.6838 6.22981L13.3377 6.88376ZM5.43944 6.03419L5.04834 6.24497C4.10729 6.7522 2.92365 6.58208 2.1699 5.83134C1.70772 5.37099 1.45944 4.76095 1.45221 4.13657L2.12647 4.81083C2.80623 5.49067 3.9124 5.49067 4.59217 4.81083C4.92151 4.48153 5.10287 4.04368 5.10287 3.57798C5.10287 3.11228 4.92151 2.67442 4.59217 2.34513L3.91803 1.67099C4.54076 1.67829 5.1494 1.92528 5.60912 2.38505C6.31041 3.08638 6.51635 4.13106 6.13369 5.04653L5.97084 5.43618L8.96307 8.03778L8.11166 8.81353L5.43944 6.03419ZM3.14612 17.9902C2.93471 18.2217 2.64569 18.353 2.33229 18.3601C2.01924 18.3667 1.72424 18.249 1.5026 18.0273C1.28096 17.8057 1.1628 17.5111 1.16987 17.1977C1.17694 16.8843 1.30826 16.5952 1.53908 16.3843L6.271 12.0729L7.47276 13.2752L3.14612 17.9902ZM18.4947 17.9052C18.2782 18.131 17.9868 18.2553 17.674 18.2553C17.6734 18.2553 17.6728 18.2553 17.6722 18.2553C17.3588 18.2548 17.0671 18.1296 16.849 17.9008L10.6918 11.497L11.6925 10.4064L18.4231 16.2628C18.6589 16.4693 18.7963 16.7556 18.8099 17.0687C18.8236 17.3818 18.7117 17.6789 18.4947 17.9052Z" fill="white"/>
</g>
</svg>
