<svg width="20" height="20" viewBox="0 0 21 20" fill="white" xmlns="http://www.w3.org/2000/svg">
<g id="connectivity" opacity="0.4">
<path id="Vector" d="M18.7422 12.9297C18.3033 12.9297 17.9019 13.0917 17.5937 13.3586L14.3162 11.5033C14.5004 11.0376 14.6016 10.5304 14.6016 10C14.6016 8.96637 14.217 8.02109 13.584 7.29904L16.8998 3.39783C17.0959 3.47366 17.3088 3.51562 17.5312 3.51562C18.5005 3.51562 19.2891 2.72705 19.2891 1.75781C19.2891 0.788574 18.5005 0 17.5312 0C16.562 0 15.7734 0.788574 15.7734 1.75781C15.7734 2.07748 15.8596 2.37732 16.0095 2.63596L12.6942 6.53625C12.0593 6.13251 11.3066 5.89844 10.5 5.89844C9.8689 5.89844 9.2706 6.04187 8.73593 6.29761L7.2189 4.02206C7.43939 3.72833 7.57031 3.36349 7.57031 2.96875C7.57031 1.99951 6.78174 1.21094 5.8125 1.21094C4.84326 1.21094 4.05469 1.99951 4.05469 2.96875C4.05469 3.93799 4.84326 4.72656 5.8125 4.72656C5.96143 4.72656 6.10608 4.70779 6.24432 4.6727L7.76181 6.94901C6.92548 7.7005 6.39844 8.78983 6.39844 10C6.39844 10.3659 6.44681 10.7208 6.53729 11.0587L3.55054 12.326C3.22903 11.9769 2.76868 11.7578 2.25781 11.7578C1.28857 11.7578 0.5 12.5464 0.5 13.5156C0.5 14.4849 1.28857 15.2734 2.25781 15.2734C3.22705 15.2734 4.01562 14.4849 4.01562 13.5156C4.01562 13.4779 4.0141 13.4406 4.01166 13.4033L6.99948 12.1356C7.71985 13.3119 9.01624 14.0991 10.4931 14.1014L10.8583 16.6847C10.2977 16.9789 9.91406 17.5664 9.91406 18.2422C9.91406 19.2114 10.7026 20 11.6719 20C12.6411 20 13.4297 19.2114 13.4297 18.2422C13.4297 17.3915 12.8222 16.6801 12.0182 16.5189L11.6534 13.9362C12.4872 13.6916 13.2116 13.1886 13.7336 12.5201L17.0126 14.3762C16.9944 14.4774 16.9844 14.5813 16.9844 14.6875C16.9844 15.6567 17.7729 16.4453 18.7422 16.4453C19.7114 16.4453 20.5 15.6567 20.5 14.6875C20.5 13.7183 19.7114 12.9297 18.7422 12.9297ZM5.22656 2.96875C5.22656 2.64572 5.48947 2.38281 5.8125 2.38281C6.13553 2.38281 6.39844 2.64572 6.39844 2.96875C6.39844 3.29178 6.13553 3.55469 5.8125 3.55469C5.48947 3.55469 5.22656 3.29178 5.22656 2.96875ZM2.25781 14.1016C1.93478 14.1016 1.67188 13.8387 1.67188 13.5156C1.67188 13.1926 1.93478 12.9297 2.25781 12.9297C2.58084 12.9297 2.84375 13.1926 2.84375 13.5156C2.84375 13.8387 2.58084 14.1016 2.25781 14.1016ZM17.5312 1.17188C17.8543 1.17188 18.1172 1.43478 18.1172 1.75781C18.1172 2.08084 17.8543 2.34375 17.5312 2.34375C17.2082 2.34375 16.9453 2.08084 16.9453 1.75781C16.9453 1.43478 17.2082 1.17188 17.5312 1.17188ZM11.6719 18.8281C11.3488 18.8281 11.0859 18.5652 11.0859 18.2422C11.0859 17.9192 11.3488 17.6562 11.6719 17.6562C11.9949 17.6562 12.2578 17.9192 12.2578 18.2422C12.2578 18.5652 11.9949 18.8281 11.6719 18.8281ZM10.5 12.9297C8.88455 12.9297 7.57031 11.6154 7.57031 10C7.57031 8.38455 8.88455 7.07031 10.5 7.07031C12.1154 7.07031 13.4297 8.38455 13.4297 10C13.4297 11.6154 12.1154 12.9297 10.5 12.9297ZM18.7422 15.2734C18.4192 15.2734 18.1562 15.0105 18.1562 14.6875C18.1562 14.3645 18.4192 14.1016 18.7422 14.1016C19.0652 14.1016 19.3281 14.3645 19.3281 14.6875C19.3281 15.0105 19.0652 15.2734 18.7422 15.2734Z" fill="white"/>
</g>
</svg>
