<svg width="20" height="20" viewBox="0 0 20 20" fill="none" xmlns="http://www.w3.org/2000/svg">
<g id="download">
<path id="Vector" d="M17.5382 6.15158C17.1438 3.26545 14.6914 1.08936 11.7578 1.08936C9.87055 1.08936 8.13434 1.97686 7.03148 3.4842C5.43816 3.18264 3.90859 4.23436 3.60684 5.81076C1.57496 6.07104 0 7.796 0 9.87842C0 12.14 1.83996 13.98 4.10156 13.98H8.24219V12.8081H4.10156C2.48613 12.8081 1.17188 11.4938 1.17188 9.87842C1.17188 8.26299 2.50363 6.94873 4.14062 6.94873H4.72656V6.36279C4.72656 5.39354 5.51512 4.60498 6.48438 4.60498C6.93699 4.60498 7.18445 4.76146 7.52836 4.87033L7.77922 4.46885C8.64285 3.0865 10.1302 2.26123 11.7578 2.26123C14.1875 2.26123 16.2303 4.17092 16.4083 6.60881L16.4365 6.99498L16.8029 7.12045C18.0142 7.53537 18.8281 8.64373 18.8281 9.87842C18.8281 11.4938 17.5139 12.8081 15.8984 12.8081H11.7578V13.98H15.8984C18.16 13.98 20 12.14 20 9.87842C20 8.26799 19.0251 6.81396 17.5382 6.15158Z" fill="#1D2865"/>
<path id="Vector_2" d="M10.5859 16.667V9.87842H9.41405V16.667L8.07054 15.3235L7.24194 16.1521L9.99999 18.9102L12.758 16.1521L11.9294 15.3235L10.5859 16.667Z" fill="#1D2865"/>
</g>
</svg>
