<svg xmlns="http://www.w3.org/2000/svg" width="21" height="20" viewBox="0 0 21 20" fill="none">
<g opacity="0.4">
<path d="M19.5027 2.65656H18.6882C18.3203 1.13419 16.9467 0 15.3129 0C13.6792 0 12.3056 1.13419 11.9377 2.65656H11.132V8.24722H11.9761V9.52133H9.00311V8.24722H9.84723V2.65656H9.03714C8.66925 1.13419 7.29565 0 5.6619 0C4.02814 0 2.65454 1.13419 2.28665 2.65656H1.47656V8.24722H2.32068V14.5743H3.23331V16.4545H2.76273V20H8.56107V16.4545H8.09048V14.5743H9.00311V13.107H11.976V14.5743H12.8843V16.4545H12.4136V20H18.2121V16.4545H17.7415V14.5743H18.6586V8.24722H19.5025V2.65656H19.5027ZM18.3308 7.07535H12.3039V3.82843H18.3308V7.07535ZM15.3129 1.17188C16.2942 1.17188 17.1335 1.7897 17.4633 2.65656H13.1625C13.4924 1.7897 14.3316 1.17188 15.3129 1.17188ZM2.64844 3.82843H8.67535V7.07535H2.64844V3.82843ZM5.6619 1.17188C6.64319 1.17188 7.48242 1.7897 7.81232 2.65656H3.51147C3.84137 1.7897 4.6806 1.17188 5.6619 1.17188ZM7.38919 18.8281H3.9346V17.6263H7.38919V18.8281ZM6.91861 16.4545H4.40518V14.5743H6.91861V16.4545ZM7.83124 13.4024H3.49255V8.24722H7.83124V13.4024ZM9.00311 11.9351V10.6932H11.9761V11.9351H9.00311ZM17.0402 18.8281H13.5856V17.6263H17.0402V18.8281ZM16.5696 16.4545H14.0562V14.5743H16.5696V16.4545ZM17.4867 13.4024H13.148V8.24722H17.4867V13.4024Z" fill="#072857"/>
</g>
</svg>